<?xml version="1.0" encoding="UTF-8"?>
<!DOCTYPE svg PUBLIC "-//W3C//DTD SVG 1.1//EN" "http://www.w3.org/Graphics/SVG/1.1/DTD/svg11.dtd">
<svg xmlns="http://www.w3.org/2000/svg" version="1.1" width="2000px" height="2000px" style="shape-rendering:geometricPrecision; text-rendering:geometricPrecision; image-rendering:optimizeQuality; fill-rule:evenodd; clip-rule:evenodd" xmlns:xlink="http://www.w3.org/1999/xlink">
<g><path style="opacity:1" fill="#fefefe" d="M -0.5,-0.5 C 666.167,-0.5 1332.83,-0.5 1999.5,-0.5C 1999.5,666.167 1999.5,1332.83 1999.5,1999.5C 1332.83,1999.5 666.167,1999.5 -0.5,1999.5C -0.5,1332.83 -0.5,666.167 -0.5,-0.5 Z"/></g>
<g><path style="opacity:1" fill="#171c22" d="M 980.5,275.5 C 1120.11,272.745 1234.94,324.078 1325,429.5C 1382.45,500.461 1413.78,581.794 1419,673.5C 1419.67,919.5 1419.67,1165.5 1419,1411.5C 1418.5,1412 1418,1412.5 1417.5,1413C 1139.5,1413.67 861.5,1413.67 583.5,1413C 583,1412.5 582.5,1412 582,1411.5C 581.333,1162.17 581.333,912.833 582,663.5C 594.04,536.887 650.207,435.054 750.5,358C 819.109,308.185 895.776,280.685 980.5,275.5 Z"/></g>
<g><path style="opacity:1" fill="#fefefe" d="M 1400.5,684.5 C 1400.83,734.572 1400.5,784.572 1399.5,834.5C 1267.07,925.646 1137.9,1021.31 1012,1121.5C 1011.17,1051.5 1011.33,981.498 1012.5,911.5C 1044.13,904.674 1075.8,898.174 1107.5,892C 1136.82,885.504 1165.48,876.837 1193.5,866C 1265.73,833.055 1294.23,777.222 1279,698.5C 1272.79,667.54 1262.79,637.874 1249,609.5C 1237.89,590.275 1227.55,570.609 1218,550.5C 1216.33,545.833 1214.67,541.167 1213,536.5C 1212.13,527.015 1210.47,517.682 1208,508.5C 1204.47,500.154 1198.3,497.321 1189.5,500C 1182.77,503.065 1178.61,508.231 1177,515.5C 1175.25,523.734 1174.42,532.067 1174.5,540.5C 1174.96,555.224 1176.12,569.89 1178,584.5C 1184.74,619.53 1187.74,654.863 1187,690.5C 1181.56,739.031 1161.9,780.697 1128,815.5C 1095.47,848.024 1056.97,870.691 1012.5,883.5C 1011.34,877.193 1011.17,870.859 1012,864.5C 1032.62,850.17 1051.96,834.17 1070,816.5C 1131.73,746.491 1148.07,666.825 1119,577.5C 1102.61,533.042 1080.28,492.042 1052,454.5C 1041,440.5 1030,426.5 1019,412.5C 1013.35,405.683 1007.18,399.35 1000.5,393.5C 963.437,432.062 931.937,474.729 906,521.5C 886.033,557.4 873.7,595.733 869,636.5C 862.903,718.253 891.07,785.42 953.5,838C 965.051,847.218 976.884,856.052 989,864.5C 989.5,870.825 989.666,877.158 989.5,883.5C 918.027,863.855 865.194,821.188 831,755.5C 813.108,714.761 808.108,672.428 816,628.5C 821.218,599.537 824.385,570.37 825.5,541C 826.407,529.811 824.907,518.978 821,508.5C 815.782,500.979 808.616,498.145 799.5,500C 796.96,502.205 794.793,504.705 793,507.5C 790.356,516.65 788.689,525.983 788,535.5C 786.534,540.232 784.867,544.898 783,549.5C 772.192,571.782 760.859,593.782 749,615.5C 733.53,647.574 723.53,681.24 719,716.5C 712.278,787.58 741.445,837.414 806.5,866C 833.155,876.551 860.488,884.885 888.5,891C 921.823,897.83 955.156,904.664 988.5,911.5C 988.833,981.335 988.499,1051 987.5,1120.5C 861.615,1020.46 732.449,924.789 600,833.5C 599.333,780.833 599.333,728.167 600,675.5C 611.446,534.358 676.613,426.192 795.5,351C 886.743,298.127 984.076,282.46 1087.5,304C 1216.04,336.22 1308.88,412.053 1366,531.5C 1387.44,580.27 1398.94,631.27 1400.5,684.5 Z"/></g>
<g><path style="opacity:1" fill="#fefefe" d="M 999.5,421.5 C 1046.7,470.523 1081.2,527.523 1103,592.5C 1124.65,667.036 1111.32,734.37 1063,794.5C 1044.89,814.458 1024.06,830.791 1000.5,843.5C 937.525,809.273 900.359,756.607 889,685.5C 885.146,636.806 893.813,590.472 915,546.5C 926.566,522.354 939.899,499.354 955,477.5C 969.128,458.226 983.962,439.559 999.5,421.5 Z"/></g>
<g><path style="opacity:1" fill="#fcfcfd" d="M 805.5,543.5 C 806.147,544.274 806.48,545.274 806.5,546.5C 805.85,551.149 805.35,555.816 805,560.5C 800.906,584.064 797.572,607.731 795,631.5C 791.179,673.298 796.179,713.965 810,753.5C 833.729,812.564 874.562,855.397 932.5,882C 889.268,876.814 847.935,864.814 808.5,846C 752.668,817.509 729.168,772.009 738,709.5C 742.901,683.673 750.567,658.673 761,634.5C 771.809,612.881 783.143,591.548 795,570.5C 799.068,561.701 802.568,552.701 805.5,543.5 Z"/></g>
<g><path style="opacity:1" fill="#fcfdfd" d="M 1194.5,543.5 C 1196.95,549.745 1199.45,556.078 1202,562.5C 1213.33,583.833 1224.67,605.167 1236,626.5C 1248.06,651.694 1256.73,678.027 1262,705.5C 1272.61,766.767 1251.11,812.601 1197.5,843C 1156.64,863.29 1113.64,876.29 1068.5,882C 1152.38,841.158 1198.21,773.991 1206,680.5C 1206.67,664.5 1206.67,648.5 1206,632.5C 1203.43,609.395 1200.09,586.395 1196,563.5C 1195.39,556.836 1194.89,550.17 1194.5,543.5 Z"/></g>
<g><path style="opacity:1" fill="#515257" d="M 1400.5,684.5 C 1401.17,709.331 1401.5,734.331 1401.5,759.5C 1401.5,784.842 1400.83,809.842 1399.5,834.5C 1400.5,784.572 1400.83,734.572 1400.5,684.5 Z"/></g>
<g><path style="opacity:1" fill="#fdfdfd" d="M 602.5,860.5 C 631.672,877.251 659.672,895.751 686.5,916C 753.629,967.729 821.296,1018.73 889.5,1069C 922.956,1095.45 956.123,1122.29 989,1149.5C 989.667,1168.5 989.667,1187.5 989,1206.5C 947.761,1178.79 905.927,1151.96 863.5,1126C 775.441,1074.98 687.775,1023.48 600.5,971.5C 599.84,934.152 600.506,897.152 602.5,860.5 Z"/></g>
<g><path style="opacity:1" fill="#fdfefe" d="M 1399.5,859.5 C 1400.66,896.664 1400.83,933.998 1400,971.5C 1317.08,1020.71 1233.91,1069.54 1150.5,1118C 1103.57,1146.38 1057.4,1175.88 1012,1206.5C 1011.33,1187.5 1011.33,1168.5 1012,1149.5C 1040.59,1124.91 1069.75,1101.08 1099.5,1078C 1170.53,1025.15 1241.19,971.819 1311.5,918C 1339.92,897.067 1369.26,877.567 1399.5,859.5 Z"/></g>
<g><path style="opacity:1" fill="#8a8b90" d="M 602.5,860.5 C 600.506,897.152 599.84,934.152 600.5,971.5C 599.502,934.337 599.168,897.004 599.5,859.5C 600.791,859.263 601.791,859.596 602.5,860.5 Z"/></g>
<g><path style="opacity:1" fill="#898a8e" d="M 988.5,911.5 C 989.832,981.335 989.832,1051.33 988.5,1121.5C 987.893,1121.38 987.56,1121.04 987.5,1120.5C 988.499,1051 988.833,981.335 988.5,911.5 Z"/></g>
<g><path style="opacity:1" fill="#fefefe" d="M 601.5,999.5 C 689.31,1050.24 777.31,1100.74 865.5,1151C 906.678,1178.7 947.678,1206.53 988.5,1234.5C 988.831,1265 988.498,1295.34 987.5,1325.5C 858.309,1259.74 729.309,1193.74 600.5,1127.5C 600.168,1084.66 600.501,1042 601.5,999.5 Z"/></g>
<g><path style="opacity:1" fill="#fefefe" d="M 1399.5,999.5 C 1400.83,1042.4 1400.83,1085.4 1399.5,1128.5C 1270.34,1194.33 1141.17,1260.33 1012,1326.5C 1011.17,1295.49 1011.33,1264.49 1012.5,1233.5C 1052.83,1206.33 1093.17,1179.17 1133.5,1152C 1222.03,1100.9 1310.7,1050.07 1399.5,999.5 Z"/></g>
<g><path style="opacity:1" fill="#8a8b8f" d="M 601.5,999.5 C 600.501,1042 600.168,1084.66 600.5,1127.5C 599.169,1084.66 599.169,1041.66 600.5,998.5C 601.107,998.624 601.44,998.957 601.5,999.5 Z"/></g>
<g><path style="opacity:1" fill="#515257" d="M 1399.5,999.5 C 1399.56,998.957 1399.89,998.624 1400.5,998.5C 1400.83,1020.17 1401.17,1041.83 1401.5,1063.5C 1401.5,1085.51 1400.83,1107.18 1399.5,1128.5C 1400.83,1085.4 1400.83,1042.4 1399.5,999.5 Z"/></g>
<g><path style="opacity:1" fill="#fdfdfd" d="M 1398.5,1154.5 C 1400.5,1234.49 1401.16,1314.83 1400.5,1395.5C 1270.83,1395.5 1141.17,1395.5 1011.5,1395.5C 1011.17,1380.15 1011.5,1364.82 1012.5,1349.5C 1030.11,1338.4 1048.11,1327.9 1066.5,1318C 1175.63,1259.94 1286.29,1205.44 1398.5,1154.5 Z"/></g>
<g><path style="opacity:1" fill="#fefefe" d="M 600.5,1154.5 C 719.24,1208.04 835.906,1265.54 950.5,1327C 963.604,1334.3 976.271,1342.13 988.5,1350.5C 988.5,1365.17 988.5,1379.83 988.5,1394.5C 859.167,1394.5 729.833,1394.5 600.5,1394.5C 600.5,1314.5 600.5,1234.5 600.5,1154.5 Z"/></g>
<g><path style="opacity:1" fill="#898a8e" d="M 988.5,1234.5 C 989.83,1265 989.83,1295.67 988.5,1326.5C 987.893,1326.38 987.56,1326.04 987.5,1325.5C 988.498,1295.34 988.831,1265 988.5,1234.5 Z"/></g>
<g><path style="opacity:1" fill="#8b8c90" d="M 600.5,1154.5 C 600.5,1234.5 600.5,1314.5 600.5,1394.5C 729.833,1394.5 859.167,1394.5 988.5,1394.5C 988.5,1379.83 988.5,1365.17 988.5,1350.5C 989.496,1365.32 989.829,1380.32 989.5,1395.5C 859.5,1395.5 729.5,1395.5 599.5,1395.5C 599.167,1315 599.501,1234.66 600.5,1154.5 Z"/></g>
<g><path style="opacity:1" fill="#c3c3c5" d="M 1099.5,1471.5 C 1075.5,1471.5 1051.5,1471.5 1027.5,1471.5C 1027.5,1473.17 1027.5,1474.83 1027.5,1476.5C 1026.54,1474.74 1026.21,1472.74 1026.5,1470.5C 1051.01,1470.17 1075.34,1470.5 1099.5,1471.5 Z"/></g>
<g><path style="opacity:1" fill="#181c22" d="M 646.5,1465.5 C 674.427,1463.2 698.261,1471.86 718,1491.5C 721.186,1495.3 722.186,1499.63 721,1504.5C 717.138,1509.02 712.638,1512.86 707.5,1516C 706.056,1516.78 704.723,1516.61 703.5,1515.5C 698.7,1503.9 692.867,1492.9 686,1482.5C 675.82,1472.51 663.654,1469.01 649.5,1472C 635.352,1477.42 625.519,1487.25 620,1501.5C 608.539,1532.28 608.872,1562.95 621,1593.5C 632.511,1619.18 651.344,1627.01 677.5,1617C 692.797,1607.73 700.297,1594.23 700,1576.5C 697,1568.5 694,1560.5 691,1552.5C 690.104,1549.97 690.604,1547.81 692.5,1546C 702.5,1545.33 712.5,1545.33 722.5,1546C 723,1546.5 723.5,1547 724,1547.5C 724.167,1560 724.333,1572.5 724.5,1585C 724.49,1597.89 723.823,1610.56 722.5,1623C 717.833,1623.67 713.167,1623.67 708.5,1623C 707.491,1617.13 706.158,1611.29 704.5,1605.5C 678.42,1631.81 649.087,1635.64 616.5,1617C 591.708,1600.26 579.374,1576.76 579.5,1546.5C 580.29,1511.57 596.29,1486.4 627.5,1471C 633.736,1468.36 640.069,1466.53 646.5,1465.5 Z"/></g>
<g><path style="opacity:1" fill="#181c22" d="M 796.5,1470.5 C 801.663,1470.08 806.496,1471.08 811,1473.5C 823.979,1503.1 834.979,1533.44 844,1564.5C 851.54,1584.29 859.374,1603.95 867.5,1623.5C 853.496,1623.67 839.496,1623.5 825.5,1623C 825,1622.5 824.5,1622 824,1621.5C 825.862,1601.01 822.862,1581.34 815,1562.5C 813.786,1560.95 812.286,1559.78 810.5,1559C 798.183,1557.11 785.849,1557.11 773.5,1559C 770.272,1560.56 768.105,1563.06 767,1566.5C 764.898,1573.01 763.565,1579.68 763,1586.5C 762.443,1598.53 762.443,1610.53 763,1622.5C 755.253,1623.48 747.42,1623.82 739.5,1623.5C 756.523,1573.79 774.023,1524.12 792,1474.5C 793.397,1472.93 794.897,1471.6 796.5,1470.5 Z"/></g>
<g><path style="opacity:1" fill="#171c22" d="M 915.5,1470.5 C 931.585,1469.94 947.585,1470.78 963.5,1473C 995.207,1482.06 1004.04,1501.56 990,1531.5C 988.127,1533.71 985.96,1535.54 983.5,1537C 976.575,1540.14 969.575,1542.97 962.5,1545.5C 970.438,1550.6 977.271,1556.94 983,1564.5C 993.809,1582.61 1003.98,1601.11 1013.5,1620C 1013.26,1620.87 1012.93,1621.71 1012.5,1622.5C 1006.83,1622.83 1001.17,1623.17 995.5,1623.5C 989.063,1623.63 982.73,1623.13 976.5,1622C 972.135,1606.9 966.968,1592.07 961,1577.5C 956.691,1567.04 950.525,1557.87 942.5,1550C 933.623,1545.95 924.29,1544.45 914.5,1545.5C 914.032,1571.61 915.365,1597.61 918.5,1623.5C 906.5,1623.5 894.5,1623.5 882.5,1623.5C 883.668,1611.82 885.168,1600.15 887,1588.5C 887.667,1558.83 887.667,1529.17 887,1499.5C 884.852,1490.59 883.852,1481.59 884,1472.5C 894.598,1471.84 905.098,1471.18 915.5,1470.5 Z"/></g>
<g><path style="opacity:1" fill="#171b21" d="M 1180.5,1471.5 C 1215.17,1471.5 1249.83,1471.5 1284.5,1471.5C 1284.5,1478.17 1284.5,1484.83 1284.5,1491.5C 1283.13,1491.66 1281.79,1491.49 1280.5,1491C 1273.5,1487.33 1266.5,1483.67 1259.5,1480C 1247.96,1477.57 1236.29,1476.9 1224.5,1478C 1220.5,1478.67 1217.67,1480.83 1216,1484.5C 1213.38,1500.06 1212.38,1515.72 1213,1531.5C 1217.12,1534.53 1221.79,1535.87 1227,1535.5C 1240.87,1533.56 1254.7,1531.56 1268.5,1529.5C 1268.79,1535.56 1268.46,1541.56 1267.5,1547.5C 1264.89,1548.65 1262.23,1548.82 1259.5,1548C 1249.85,1545.14 1240.02,1543.3 1230,1542.5C 1224.6,1542.31 1219.43,1543.31 1214.5,1545.5C 1213.72,1546.73 1213.22,1548.06 1213,1549.5C 1212.33,1564.17 1212.33,1578.83 1213,1593.5C 1213.92,1600.7 1215.59,1607.7 1218,1614.5C 1219.42,1615.46 1220.92,1616.29 1222.5,1617C 1234.59,1617.95 1246.59,1617.29 1258.5,1615C 1266.88,1609.97 1275.55,1605.81 1284.5,1602.5C 1284.67,1608.51 1284.5,1614.51 1284,1620.5C 1283.63,1621.42 1283.13,1622.25 1282.5,1623C 1248.5,1623.5 1214.5,1623.67 1180.5,1623.5C 1182.66,1608.55 1184.49,1593.55 1186,1578.5C 1186.67,1556.17 1186.67,1533.83 1186,1511.5C 1184.69,1498.08 1182.86,1484.75 1180.5,1471.5 Z"/></g>
<g><path style="opacity:1" fill="#181c22" d="M 1305.5,1470.5 C 1310.18,1470.33 1314.85,1470.5 1319.5,1471C 1322,1471.89 1324.33,1473.05 1326.5,1474.5C 1354.86,1512.36 1383.03,1550.36 1411,1588.5C 1411.49,1561.74 1410.16,1535.08 1407,1508.5C 1405.66,1498.48 1402.33,1489.15 1397,1480.5C 1395.86,1477.57 1395.02,1474.57 1394.5,1471.5C 1402.83,1471.5 1411.17,1471.5 1419.5,1471.5C 1419.83,1521.5 1419.5,1571.5 1418.5,1621.5C 1411.98,1623.49 1405.31,1623.99 1398.5,1623C 1396.04,1621.54 1393.87,1619.71 1392,1617.5C 1364.67,1580.83 1337.33,1544.17 1310,1507.5C 1309.41,1531.89 1310.41,1556.23 1313,1580.5C 1313.52,1585.59 1314.52,1590.59 1316,1595.5C 1319.24,1604.97 1322.74,1614.31 1326.5,1623.5C 1318.5,1623.5 1310.5,1623.5 1302.5,1623.5C 1302.33,1573.17 1302.5,1522.83 1303,1472.5C 1303.99,1471.93 1304.83,1471.27 1305.5,1470.5 Z"/></g>
<g><path style="opacity:1" fill="#fafbfb" d="M 921.5,1477.5 C 956.447,1472.95 969.947,1487.95 962,1522.5C 960.124,1530.13 955.957,1535.96 949.5,1540C 937.838,1540.5 926.171,1540.67 914.5,1540.5C 914.333,1525.5 914.5,1510.5 915,1495.5C 915.346,1488.75 917.513,1482.75 921.5,1477.5 Z"/></g>
<g><path style="opacity:1" fill="#181c22" d="M 1099.5,1471.5 C 1146.81,1480.66 1168.65,1509.32 1165,1557.5C 1160.79,1587.35 1144.96,1608.18 1117.5,1620C 1111.96,1621.73 1106.3,1622.73 1100.5,1623C 1076.17,1623.5 1051.84,1623.67 1027.5,1623.5C 1027.25,1613.99 1028.42,1604.65 1031,1595.5C 1033,1562.17 1033,1528.83 1031,1495.5C 1029.03,1489.3 1027.87,1482.97 1027.5,1476.5C 1027.5,1474.83 1027.5,1473.17 1027.5,1471.5C 1051.5,1471.5 1075.5,1471.5 1099.5,1471.5 Z"/></g>
<g><path style="opacity:1" fill="#fdfdfd" d="M 1063.5,1476.5 C 1074.21,1476.22 1084.87,1476.72 1095.5,1478C 1113.85,1483.36 1125.02,1495.53 1129,1514.5C 1134.4,1539.77 1133.4,1564.77 1126,1589.5C 1121.81,1603.03 1112.97,1611.86 1099.5,1616C 1087.55,1617.37 1075.55,1617.87 1063.5,1617.5C 1062.87,1610.43 1061.7,1603.43 1060,1596.5C 1058.02,1563.5 1058.02,1530.5 1060,1497.5C 1061.82,1490.6 1062.98,1483.6 1063.5,1476.5 Z"/></g>
<g><path style="opacity:1" fill="#f8f8f9" d="M 790.5,1497.5 C 792.545,1500.58 794.378,1503.91 796,1507.5C 800.277,1520.16 804.443,1532.83 808.5,1545.5C 808.43,1546.77 808.097,1547.94 807.5,1549C 796.843,1553.62 786.176,1553.62 775.5,1549C 774.978,1548.44 774.645,1547.77 774.5,1547C 779.744,1530.44 785.077,1513.94 790.5,1497.5 Z"/></g>
<g><path style="opacity:1" fill="#c3c4c7" d="M 1180.5,1681.5 C 1180.5,1695.17 1180.5,1708.83 1180.5,1722.5C 1181.5,1722.5 1182.5,1722.5 1183.5,1722.5C 1182.43,1723.43 1181.1,1723.77 1179.5,1723.5C 1179.17,1709.32 1179.5,1695.32 1180.5,1681.5 Z"/></g>
<g><path style="opacity:1" fill="#23262a" d="M 995.5,1681.5 C 1008.47,1678.75 1017.97,1683.09 1024,1694.5C 1026.48,1716.68 1016.65,1725.85 994.5,1722C 983.242,1715.57 979.409,1706.07 983,1693.5C 985.744,1687.92 989.911,1683.92 995.5,1681.5 Z"/></g>
<g><path style="opacity:1" fill="#fbfbfb" d="M 996.5,1684.5 C 1016.2,1682.69 1024.03,1691.36 1020,1710.5C 1014.01,1719.5 1005.85,1722.33 995.5,1719C 985.158,1712.08 982.658,1702.92 988,1691.5C 990.441,1688.55 993.275,1686.21 996.5,1684.5 Z"/></g>
<g><path style="opacity:1" fill="#c0c3c6" d="M 1044.5,1681.5 C 1044.5,1695.17 1044.5,1708.83 1044.5,1722.5C 1045.5,1722.5 1046.5,1722.5 1047.5,1722.5C 1046.43,1723.43 1045.1,1723.77 1043.5,1723.5C 1043.17,1709.32 1043.5,1695.32 1044.5,1681.5 Z"/></g>
<g><path style="opacity:1" fill="#1d1f24" d="M 819.5,1681.5 C 827.174,1681.33 834.841,1681.5 842.5,1682C 852.053,1686.86 853.053,1693.2 845.5,1701C 851.908,1704.32 854.075,1709.49 852,1716.5C 849.916,1720.13 846.749,1722.13 842.5,1722.5C 834.833,1722.5 827.167,1722.5 819.5,1722.5C 819.5,1708.83 819.5,1695.17 819.5,1681.5 Z"/></g>
<g><path style="opacity:1" fill="#888a8e" d="M 836.5,1684.5 C 831.833,1684.5 827.167,1684.5 822.5,1684.5C 822.5,1689.83 822.5,1695.17 822.5,1700.5C 821.511,1695.02 821.178,1689.36 821.5,1683.5C 826.695,1683.18 831.695,1683.51 836.5,1684.5 Z"/></g>
<g><path style="opacity:1" fill="#fafbfb" d="M 836.5,1684.5 C 844.678,1683.84 848.178,1687.51 847,1695.5C 845.363,1697.81 843.196,1699.31 840.5,1700C 834.509,1700.5 828.509,1700.67 822.5,1700.5C 822.5,1695.17 822.5,1689.83 822.5,1684.5C 827.167,1684.5 831.833,1684.5 836.5,1684.5 Z"/></g>
<g><path style="opacity:1" fill="#1d2024" d="M 1044.5,1681.5 C 1051.84,1681.33 1059.17,1681.5 1066.5,1682C 1076.25,1686.67 1078.75,1693.84 1074,1703.5C 1071.77,1705.7 1069.27,1707.53 1066.5,1709C 1069.87,1712.9 1072.87,1717.07 1075.5,1721.5C 1073.74,1722.75 1072.24,1722.42 1071,1720.5C 1068.89,1716.72 1066.39,1713.22 1063.5,1710C 1058.18,1709.5 1052.84,1709.33 1047.5,1709.5C 1047.5,1713.83 1047.5,1718.17 1047.5,1722.5C 1046.5,1722.5 1045.5,1722.5 1044.5,1722.5C 1044.5,1708.83 1044.5,1695.17 1044.5,1681.5 Z"/></g>
<g><path style="opacity:1" fill="#fcfcfc" d="M 1047.5,1684.5 C 1053.51,1684.33 1059.51,1684.5 1065.5,1685C 1072.05,1687.73 1074.22,1692.56 1072,1699.5C 1070.88,1701.62 1069.38,1703.46 1067.5,1705C 1060.92,1706.38 1054.26,1706.88 1047.5,1706.5C 1047.5,1699.17 1047.5,1691.83 1047.5,1684.5 Z"/></g>
<g><path style="opacity:1" fill="#161a20" d="M 1180.5,1681.5 C 1181.5,1681.5 1182.5,1681.5 1183.5,1681.5C 1183.5,1695.17 1183.5,1708.83 1183.5,1722.5C 1182.5,1722.5 1181.5,1722.5 1180.5,1722.5C 1180.5,1708.83 1180.5,1695.17 1180.5,1681.5 Z"/></g>
<g><path style="opacity:1" fill="#171a1f" d="M 1098.5,1681.5 C 1099.15,1695.54 1098.48,1709.21 1096.5,1722.5C 1095.85,1708.46 1096.52,1694.79 1098.5,1681.5 Z"/></g>
<g><path style="opacity:1" fill="#161a21" d="M 583.5,1690.5 C 650.834,1690.33 718.167,1690.5 785.5,1691C 786,1691.5 786.5,1692 787,1692.5C 787.667,1697.5 787.667,1702.5 787,1707.5C 786.5,1708 786,1708.5 785.5,1709C 718.167,1709.67 650.833,1709.67 583.5,1709C 580.987,1706.6 579.987,1703.6 580.5,1700C 580.009,1696.25 581.009,1693.08 583.5,1690.5 Z"/></g>
<g><path style="opacity:1" fill="#161a21" d="M 1214.5,1690.5 C 1281.83,1690.33 1349.17,1690.5 1416.5,1691C 1419.01,1693.4 1420.01,1696.4 1419.5,1700C 1420.01,1703.6 1419.01,1706.6 1416.5,1709C 1349.5,1709.67 1282.5,1709.67 1215.5,1709C 1212.97,1706.43 1211.97,1703.26 1212.5,1699.5C 1212.27,1696.19 1212.94,1693.19 1214.5,1690.5 Z"/></g>
<g><path style="opacity:1" fill="#202227" d="M 1122.5,1681.5 C 1130.17,1681.33 1137.84,1681.5 1145.5,1682C 1161.36,1688.93 1165.2,1700.09 1157,1715.5C 1153.9,1718.93 1150.06,1721.1 1145.5,1722C 1137.84,1722.5 1130.17,1722.67 1122.5,1722.5C 1122.5,1708.83 1122.5,1695.17 1122.5,1681.5 Z"/></g>
<g><path style="opacity:1" fill="#f8f9f9" d="M 1125.5,1684.5 C 1132.17,1684.33 1138.84,1684.5 1145.5,1685C 1157.09,1690.03 1160.59,1698.53 1156,1710.5C 1153.28,1715.55 1149.11,1718.72 1143.5,1720C 1137.51,1720.5 1131.51,1720.67 1125.5,1720.5C 1125.5,1708.5 1125.5,1696.5 1125.5,1684.5 Z"/></g>
<g><path style="opacity:1" fill="#52565a" d="M 1098.5,1681.5 C 1099.5,1695.32 1099.83,1709.32 1099.5,1723.5C 1098.21,1723.74 1097.21,1723.4 1096.5,1722.5C 1098.48,1709.21 1099.15,1695.54 1098.5,1681.5 Z"/></g>
<g><path style="opacity:1" fill="#fcfcfc" d="M 822.5,1703.5 C 829.841,1703.33 837.174,1703.5 844.5,1704C 850.259,1707.89 850.926,1712.56 846.5,1718C 844.975,1719.01 843.308,1719.51 841.5,1719.5C 835.167,1719.5 828.833,1719.5 822.5,1719.5C 822.5,1714.17 822.5,1708.83 822.5,1703.5 Z"/></g>
<g><path style="opacity:1" fill="#212428" d="M 882.5,1681.5 C 902.518,1679.03 912.018,1687.69 911,1707.5C 906.375,1719.78 897.542,1724.95 884.5,1723C 868.25,1716.4 864.083,1705.23 872,1689.5C 874.94,1685.96 878.44,1683.3 882.5,1681.5 Z"/></g>
<g><path style="opacity:1" fill="#fafafa" d="M 883.5,1684.5 C 895.369,1682.18 903.536,1686.51 908,1697.5C 909.187,1713.65 901.687,1721.15 885.5,1720C 872.449,1714.73 868.616,1705.56 874,1692.5C 876.772,1689.22 879.939,1686.55 883.5,1684.5 Z"/></g>
<g><path style="opacity:1" fill="#acaeb2" d="M 822.5,1703.5 C 822.5,1708.83 822.5,1714.17 822.5,1719.5C 828.833,1719.5 835.167,1719.5 841.5,1719.5C 835.021,1720.49 828.354,1720.82 821.5,1720.5C 821.178,1714.64 821.511,1708.98 822.5,1703.5 Z"/></g>
<g><path style="opacity:1" fill="#212428" d="M 940.5,1681.5 C 945.511,1681.33 950.511,1681.5 955.5,1682C 958.657,1682.74 961.323,1684.24 963.5,1686.5C 963.167,1687.5 962.5,1688.17 961.5,1688.5C 953.225,1683.44 944.892,1683.27 936.5,1688C 929.908,1695.29 928.741,1703.46 933,1712.5C 940.936,1721.46 949.936,1722.79 960,1716.5C 960.499,1711.85 960.666,1707.18 960.5,1702.5C 961.5,1702.5 962.5,1702.5 963.5,1702.5C 963.666,1707.84 963.499,1713.18 963,1718.5C 951.498,1726.02 940.831,1725.02 931,1715.5C 923.647,1701 926.814,1689.67 940.5,1681.5 Z"/></g>
<g><path style="opacity:1" fill="#74777a" d="M 819.5,1681.5 C 819.5,1695.17 819.5,1708.83 819.5,1722.5C 827.167,1722.5 834.833,1722.5 842.5,1722.5C 834.684,1723.49 826.684,1723.83 818.5,1723.5C 818.171,1709.32 818.504,1695.32 819.5,1681.5 Z"/></g>
</svg>
