<?xml version="1.0" encoding="UTF-8"?>
<!DOCTYPE svg PUBLIC "-//W3C//DTD SVG 1.1//EN" "http://www.w3.org/Graphics/SVG/1.1/DTD/svg11.dtd">
<svg xmlns="http://www.w3.org/2000/svg" version="1.1" width="500px" height="500px" style="shape-rendering:geometricPrecision; text-rendering:geometricPrecision; image-rendering:optimizeQuality; fill-rule:evenodd; clip-rule:evenodd" xmlns:xlink="http://www.w3.org/1999/xlink">
<g><path style="opacity:0.991" fill="#16191d" d="M 262.5,68.5 C 261.803,70.0707 261.47,71.5707 261.5,73C 255.652,73.1728 249.985,73.6728 244.5,74.5C 240.119,74.3718 235.785,74.7051 231.5,75.5C 229.143,75.6633 226.81,75.4966 224.5,75C 223.027,74.2904 222.36,73.1238 222.5,71.5C 225.628,70.3681 228.962,69.5348 232.5,69C 242.494,68.5002 252.494,68.3335 262.5,68.5 Z"/></g>
<g><path style="opacity:0.995" fill="#2a2e32" d="M 262.5,68.5 C 271.52,69.1655 279.854,71.4988 287.5,75.5C 287.957,77.2864 287.957,79.2864 287.5,81.5C 273.719,76.024 259.386,73.6906 244.5,74.5C 249.985,73.6728 255.652,73.1728 261.5,73C 261.47,71.5707 261.803,70.0707 262.5,68.5 Z"/></g>
<g><path style="opacity:1" fill="#24262b" d="M 222.5,71.5 C 222.36,73.1238 223.027,74.2904 224.5,75C 226.81,75.4966 229.143,75.6633 231.5,75.5C 222.536,77.299 213.87,80.299 205.5,84.5C 204.464,82.6089 204.464,80.7755 205.5,79C 204.906,78.5357 204.239,78.369 203.5,78.5C 209.46,75.3621 215.793,73.0287 222.5,71.5 Z"/></g>
<g><path style="opacity:0.231" fill="#888a8a" d="M 197.5,81.5 C 197.027,82.9063 196.027,83.573 194.5,83.5C 194.973,82.0937 195.973,81.427 197.5,81.5 Z"/></g>
<g><path style="opacity:1" fill="#1f2226" d="M 287.5,75.5 C 306.361,81.9433 321.694,93.2766 333.5,109.5C 333.33,110.822 333.663,111.989 334.5,113C 334.026,114.729 333.026,115.895 331.5,116.5C 319.799,101.136 305.133,89.469 287.5,81.5C 287.957,79.2864 287.957,77.2864 287.5,75.5 Z"/></g>
<g><path style="opacity:1" fill="#1e2025" d="M 203.5,78.5 C 204.239,78.369 204.906,78.5357 205.5,79C 204.464,80.7755 204.464,82.6089 205.5,84.5C 203.103,86.1948 200.437,87.5282 197.5,88.5C 195.145,87.2148 193.312,87.2148 192,88.5C 190.513,89.2529 190.346,90.0862 191.5,91C 190.551,91.6172 189.718,91.4506 189,90.5C 188.517,91.448 188.351,92.448 188.5,93.5C 186.323,93.5861 184.323,94.2528 182.5,95.5C 181.438,94.5754 181.438,93.5754 182.5,92.5C 185.91,88.7621 189.91,85.7621 194.5,83.5C 196.027,83.573 197.027,82.9063 197.5,81.5C 199.289,80.1228 201.289,79.1228 203.5,78.5 Z"/></g>
<g><path style="opacity:0.996" fill="#1e2125" d="M 265.5,116.5 C 264.73,119.377 263.063,120.377 260.5,119.5C 257.197,115.687 254.031,111.687 251,107.5C 250.23,106.402 249.397,106.402 248.5,107.5C 248.829,104.772 248.163,102.438 246.5,100.5C 247.458,99.0384 248.624,97.7051 250,96.5C 255.901,102.655 261.068,109.321 265.5,116.5 Z"/></g>
<g><path style="opacity:0.998" fill="#212326" d="M 246.5,100.5 C 248.163,102.438 248.829,104.772 248.5,107.5C 245.47,111.191 242.47,114.858 239.5,118.5C 238.766,117.292 238.433,115.959 238.5,114.5C 237.5,114.5 236.5,114.5 235.5,114.5C 238.411,109.254 242.078,104.587 246.5,100.5 Z"/></g>
<g><path style="opacity:0.998" fill="#282b2f" d="M 197.5,88.5 C 182.565,98.9285 170.565,111.928 161.5,127.5C 161.5,125.833 161.5,124.167 161.5,122.5C 160.167,122.5 158.833,122.5 157.5,122.5C 163.278,110.387 171.611,100.387 182.5,92.5C 181.438,93.5754 181.438,94.5754 182.5,95.5C 184.323,94.2528 186.323,93.5861 188.5,93.5C 188.351,92.448 188.517,91.448 189,90.5C 189.718,91.4506 190.551,91.6172 191.5,91C 190.346,90.0862 190.513,89.2529 192,88.5C 193.312,87.2148 195.145,87.2148 197.5,88.5 Z"/></g>
<g><path style="opacity:1" fill="#212327" d="M 235.5,114.5 C 236.5,114.5 237.5,114.5 238.5,114.5C 238.433,115.959 238.766,117.292 239.5,118.5C 228.656,133.364 222.989,150.031 222.5,168.5C 221.945,163.773 220.778,160.106 219,157.5C 218.581,158.672 217.915,159.672 217,160.5C 216.821,164.025 216.321,167.359 215.5,170.5C 215.462,149.28 222.129,130.614 235.5,114.5 Z"/></g>
<g><path style="opacity:0.984" fill="#25272b" d="M 265.5,116.5 C 269.316,121.451 272.65,126.785 275.5,132.5C 274.735,133.66 273.735,134.66 272.5,135.5C 271.056,134.019 270.389,134.352 270.5,136.5C 267.207,130.858 263.873,125.192 260.5,119.5C 263.063,120.377 264.73,119.377 265.5,116.5 Z"/></g>
<g><path style="opacity:0.999" fill="#222428" d="M 333.5,109.5 C 341.802,119.437 347.469,130.77 350.5,143.5C 347.966,143.259 346.3,144.259 345.5,146.5C 341.966,136.092 337.299,126.092 331.5,116.5C 333.026,115.895 334.026,114.729 334.5,113C 333.663,111.989 333.33,110.822 333.5,109.5 Z"/></g>
<g><path style="opacity:1" fill="#1a1d22" d="M 205.5,148.5 C 204.698,147.048 204.198,145.382 204,143.5C 202.989,142.663 201.822,142.33 200.5,142.5C 200.167,139.833 199.833,139.833 199.5,142.5C 198.292,141.766 196.959,141.433 195.5,141.5C 195.5,139.5 195.5,137.5 195.5,135.5C 195.416,131.497 196.416,127.831 198.5,124.5C 201.439,123.205 203.939,123.872 206,126.5C 207.281,133.825 207.114,141.159 205.5,148.5 Z"/></g>
<g><path style="opacity:0.997" fill="#222429" d="M 157.5,122.5 C 158.833,122.5 160.167,122.5 161.5,122.5C 161.5,124.167 161.5,125.833 161.5,127.5C 155.815,139.241 152.148,151.575 150.5,164.5C 150.663,162.143 150.497,159.81 150,157.5C 149.558,159.679 148.558,160.345 147,159.5C 147.559,157.362 147.392,155.362 146.5,153.5C 148.006,142.31 151.673,131.977 157.5,122.5 Z"/></g>
<g><path style="opacity:0.969" fill="#202328" d="M 303.5,133.5 C 302.444,134.877 301.111,135.71 299.5,136C 299.833,137 300.167,138 300.5,139C 299.833,139.333 299.167,139.667 298.5,140C 299.338,141.155 300.338,142.322 301.5,143.5C 302.284,152.989 302.284,162.656 301.5,172.5C 299.621,172.607 299.288,172.107 300.5,171C 299.751,169.266 299.251,167.433 299,165.5C 297.282,167.202 297.115,169.035 298.5,171C 298,171.5 297.5,172 297,172.5C 296.826,167.316 296.326,162.316 295.5,157.5C 292.242,146.66 291.909,135.827 294.5,125C 298.394,122.41 301.227,123.243 303,127.5C 303.495,129.473 303.662,131.473 303.5,133.5 Z"/></g>
<g><path style="opacity:1" fill="#1f2126" d="M 275.5,132.5 C 277.682,136.666 279.349,140.999 280.5,145.5C 279.531,147.663 278.698,149.996 278,152.5C 277.667,152.167 277.333,151.833 277,151.5C 276.722,152.416 276.222,153.082 275.5,153.5C 274.297,147.688 272.631,142.021 270.5,136.5C 270.389,134.352 271.056,134.019 272.5,135.5C 273.735,134.66 274.735,133.66 275.5,132.5 Z"/></g>
<g><path style="opacity:0.998" fill="#212328" d="M 303.5,133.5 C 307.272,141.044 311.105,148.71 315,156.5C 317.212,161.302 318.712,166.302 319.5,171.5C 318.198,172.807 316.865,172.807 315.5,171.5C 314.702,171.957 314.369,172.624 314.5,173.5C 310.954,163.206 306.62,153.206 301.5,143.5C 300.338,142.322 299.338,141.155 298.5,140C 299.167,139.667 299.833,139.333 300.5,139C 300.167,138 299.833,137 299.5,136C 301.111,135.71 302.444,134.877 303.5,133.5 Z"/></g>
<g><path style="opacity:1" fill="#1f2227" d="M 195.5,135.5 C 195.5,137.5 195.5,139.5 195.5,141.5C 196.959,141.433 198.292,141.766 199.5,142.5C 199.833,142.5 200.167,142.5 200.5,142.5C 201.822,142.33 202.989,142.663 204,143.5C 204.198,145.382 204.698,147.048 205.5,148.5C 205.795,150.735 205.461,152.735 204.5,154.5C 204.657,153.127 204.49,151.793 204,150.5C 202.5,153.892 200.667,154.559 198.5,152.5C 198.274,149.751 198.607,147.084 199.5,144.5C 199.154,143.304 198.654,143.304 198,144.5C 192.348,153.655 188.181,163.322 185.5,173.5C 185.66,171.801 185.494,170.134 185,168.5C 183.414,170.67 182.08,173.004 181,175.5C 180.722,174.584 180.222,173.918 179.5,173.5C 182.431,159.71 187.765,147.043 195.5,135.5 Z"/></g>
<g><path style="opacity:1" fill="#1f2126" d="M 350.5,143.5 C 352.859,149.924 354.192,156.59 354.5,163.5C 353.279,162.972 352.113,162.305 351,161.5C 349.919,159.378 349.252,157.378 349,155.5C 348.506,157.134 348.34,158.801 348.5,160.5C 347.299,155.992 346.299,151.325 345.5,146.5C 346.3,144.259 347.966,143.259 350.5,143.5 Z"/></g>
<g><path style="opacity:0.999" fill="#1b1e23" d="M 280.5,145.5 C 285.507,161.675 284.174,177.342 276.5,192.5C 274.62,191.922 273.62,190.588 273.5,188.5C 273.997,186.182 274.33,183.848 274.5,181.5C 277.662,172.228 277.996,162.895 275.5,153.5C 276.222,153.082 276.722,152.416 277,151.5C 277.333,151.833 277.667,152.167 278,152.5C 278.698,149.996 279.531,147.663 280.5,145.5 Z"/></g>
<g><path style="opacity:0.982" fill="#16191e" d="M 204.5,154.5 C 203.205,162.507 203.205,170.507 204.5,178.5C 204.917,181.079 204.25,183.246 202.5,185C 203.357,185.689 204.023,186.522 204.5,187.5C 203.167,188.5 203.167,189.5 204.5,190.5C 204.043,191.298 203.376,191.631 202.5,191.5C 197.943,178.933 196.61,165.933 198.5,152.5C 200.667,154.559 202.5,153.892 204,150.5C 204.49,151.793 204.657,153.127 204.5,154.5 Z"/></g>
<g><path style="opacity:1" fill="#2a2d32" d="M 354.5,163.5 C 355.419,185.149 355.753,206.816 355.5,228.5C 353.564,232.715 352.897,237.381 353.5,242.5C 352.71,243.609 352.21,244.942 352,246.5C 350.281,245.131 348.448,244.131 346.5,243.5C 347.117,243.389 347.617,243.056 348,242.5C 348.5,233.84 348.666,225.173 348.5,216.5C 347.909,215.849 347.243,215.182 346.5,214.5C 347.167,214.167 347.833,213.833 348.5,213.5C 347.82,212.14 347.153,210.807 346.5,209.5C 348.462,193.406 349.129,177.073 348.5,160.5C 348.34,158.801 348.506,157.134 349,155.5C 349.252,157.378 349.919,159.378 351,161.5C 352.113,162.305 353.279,162.972 354.5,163.5 Z"/></g>
<g><path style="opacity:1" fill="#292c32" d="M 146.5,153.5 C 147.392,155.362 147.559,157.362 147,159.5C 148.558,160.345 149.558,159.679 150,157.5C 150.497,159.81 150.663,162.143 150.5,164.5C 150.333,178.837 150.5,193.171 151,207.5C 152.667,208.733 154.167,210.067 155.5,211.5C 153.519,212.105 153.185,213.105 154.5,214.5C 151.861,215.192 149.194,214.859 146.5,213.5C 145.502,223.144 145.168,232.81 145.5,242.5C 145.5,244.833 145.5,247.167 145.5,249.5C 145.5,262.167 145.5,274.833 145.5,287.5C 145.831,309.007 145.497,330.34 144.5,351.5C 144.333,286.832 144.5,222.166 145,157.5C 145.41,156.099 145.91,154.766 146.5,153.5 Z"/></g>
<g><path style="opacity:0.972" fill="#15181d" d="M 222.5,168.5 C 223.207,171.786 223.54,175.119 223.5,178.5C 223.141,180.831 222.474,180.665 221.5,178C 219.095,177.719 219.095,178.385 221.5,180C 220.14,181.938 220.473,183.604 222.5,185C 221.956,185.717 221.289,186.217 220.5,186.5C 218.203,181.456 216.536,176.123 215.5,170.5C 216.321,167.359 216.821,164.025 217,160.5C 217.915,159.672 218.581,158.672 219,157.5C 220.778,160.106 221.945,163.773 222.5,168.5 Z"/></g>
<g><path style="opacity:0.976" fill="#1e2125" d="M 295.5,157.5 C 296.326,162.316 296.826,167.316 297,172.5C 297.5,172 298,171.5 298.5,171C 297.115,169.035 297.282,167.202 299,165.5C 299.251,167.433 299.751,169.266 300.5,171C 299.288,172.107 299.621,172.607 301.5,172.5C 301.297,179.027 299.63,185.027 296.5,190.5C 294.435,190.517 292.435,190.85 290.5,191.5C 291.872,186.882 293.372,182.215 295,177.5C 295.5,170.842 295.666,164.175 295.5,157.5 Z"/></g>
<g><path style="opacity:0.969" fill="#1a1d22" d="M 319.5,171.5 C 320.812,179.265 320.812,186.932 319.5,194.5C 318.022,194.238 316.689,194.571 315.5,195.5C 316.326,196.451 316.492,197.451 316,198.5C 314.108,197.383 313.275,195.716 313.5,193.5C 314.423,186.891 314.756,180.224 314.5,173.5C 314.369,172.624 314.702,171.957 315.5,171.5C 316.865,172.807 318.198,172.807 319.5,171.5 Z"/></g>
<g><path style="opacity:0.812" fill="#1a1d22" d="M 185.5,173.5 C 183.299,183.086 184.633,192.086 189.5,200.5C 192.149,208.511 190.816,209.177 185.5,202.5C 184.893,202.624 184.56,202.957 184.5,203.5C 181.643,200.454 179.81,196.787 179,192.5C 178.21,186.085 178.376,179.752 179.5,173.5C 180.222,173.918 180.722,174.584 181,175.5C 182.08,173.004 183.414,170.67 185,168.5C 185.494,170.134 185.66,171.801 185.5,173.5 Z"/></g>
<g><path style="opacity:1" fill="#1c1e23" d="M 223.5,178.5 C 228.175,191.173 236.175,201.173 247.5,208.5C 244.405,209.119 244.071,210.119 246.5,211.5C 245.807,212.518 245.141,213.518 244.5,214.5C 233.28,207.945 225.28,198.612 220.5,186.5C 221.289,186.217 221.956,185.717 222.5,185C 220.473,183.604 220.14,181.938 221.5,180C 219.095,178.385 219.095,177.719 221.5,178C 222.474,180.665 223.141,180.831 223.5,178.5 Z"/></g>
<g><path style="opacity:0.998" fill="#1e2125" d="M 204.5,178.5 C 208.303,190.108 214.637,200.108 223.5,208.5C 222.142,207.374 220.808,207.374 219.5,208.5C 220.363,209.726 220.363,211.06 219.5,212.5C 212.021,207.016 206.355,200.016 202.5,191.5C 203.376,191.631 204.043,191.298 204.5,190.5C 203.167,189.5 203.167,188.5 204.5,187.5C 204.023,186.522 203.357,185.689 202.5,185C 204.25,183.246 204.917,181.079 204.5,178.5 Z"/></g>
<g><path style="opacity:0.99" fill="#22252a" d="M 274.5,181.5 C 274.33,183.848 273.997,186.182 273.5,188.5C 273.62,190.588 274.62,191.922 276.5,192.5C 272.194,199.134 267.194,205.134 261.5,210.5C 261.657,209.127 261.49,207.793 261,206.5C 259.224,207.536 257.391,207.536 255.5,206.5C 263.81,199.542 270.143,191.209 274.5,181.5 Z"/></g>
<g><path style="opacity:0.999" fill="#1e2024" d="M 296.5,190.5 C 293.717,200.069 288.05,207.402 279.5,212.5C 277.473,212.662 275.473,212.495 273.5,212C 274.623,210.956 275.956,210.29 277.5,210C 277.043,209.586 276.709,209.086 276.5,208.5C 277.612,207.735 278.279,206.735 278.5,205.5C 282.518,200.762 286.518,196.095 290.5,191.5C 292.435,190.85 294.435,190.517 296.5,190.5 Z"/></g>
<g><path style="opacity:0.996" fill="#222429" d="M 313.5,193.5 C 313.275,195.716 314.108,197.383 316,198.5C 316.492,197.451 316.326,196.451 315.5,195.5C 316.689,194.571 318.022,194.238 319.5,194.5C 317.005,202.841 312.005,209.341 304.5,214C 292.117,219.952 279.117,223.785 265.5,225.5C 268.097,224.111 270.43,222.278 272.5,220C 270.368,219.082 269.701,217.749 270.5,216C 268.68,215.8 267.347,214.966 266.5,213.5C 270.754,211.251 274.754,208.585 278.5,205.5C 278.279,206.735 277.612,207.735 276.5,208.5C 276.709,209.086 277.043,209.586 277.5,210C 275.956,210.29 274.623,210.956 273.5,212C 275.473,212.495 277.473,212.662 279.5,212.5C 278.374,214.453 276.708,215.953 274.5,217C 291.727,215.895 304.727,208.062 313.5,193.5 Z"/></g>
<g><path style="opacity:0.996" fill="#15181d" d="M 255.5,206.5 C 257.391,207.536 259.224,207.536 261,206.5C 261.49,207.793 261.657,209.127 261.5,210.5C 259.313,212.18 256.979,213.68 254.5,215C 253.748,215.671 253.414,216.504 253.5,217.5C 252.504,217.414 251.671,217.748 251,218.5C 250.333,217.833 249.667,217.167 249,216.5C 248.862,218.432 249.362,220.266 250.5,222C 249.584,222.278 248.918,222.778 248.5,223.5C 244.849,223.195 243.182,221.529 243.5,218.5C 244.117,218.611 244.617,218.944 245,219.5C 245.78,217.613 245.613,215.946 244.5,214.5C 245.141,213.518 245.807,212.518 246.5,211.5C 244.071,210.119 244.405,209.119 247.5,208.5C 250.451,208.713 253.118,208.046 255.5,206.5 Z"/></g>
<g><path style="opacity:0.989" fill="#1f2125" d="M 189.5,200.5 C 197.436,208.462 206.769,213.796 217.5,216.5C 216.942,217.79 215.942,218.623 214.5,219C 216.596,219.737 218.263,220.903 219.5,222.5C 206.067,220.536 194.567,214.869 185,205.5C 184.536,204.906 184.369,204.239 184.5,203.5C 184.56,202.957 184.893,202.624 185.5,202.5C 190.816,209.177 192.149,208.511 189.5,200.5 Z"/></g>
<g><path style="opacity:1" fill="#292c31" d="M 223.5,208.5 C 229.934,212.384 236.601,215.717 243.5,218.5C 243.182,221.529 244.849,223.195 248.5,223.5C 247.402,224.397 247.402,225.23 248.5,226C 250.154,226.608 251.821,227.108 253.5,227.5C 253.5,241.5 253.5,255.5 253.5,269.5C 252.669,256.006 252.169,242.339 252,228.5C 251.612,229.428 250.945,230.095 250,230.5C 248.235,229.768 247.068,228.435 246.5,226.5C 244.114,225.012 243.448,225.345 244.5,227.5C 235.954,226.286 227.62,224.619 219.5,222.5C 218.263,220.903 216.596,219.737 214.5,219C 215.942,218.623 216.942,217.79 217.5,216.5C 224.559,217.99 225.226,216.656 219.5,212.5C 220.363,211.06 220.363,209.726 219.5,208.5C 220.808,207.374 222.142,207.374 223.5,208.5 Z"/></g>
<g><path style="opacity:0.997" fill="#161a20" d="M 266.5,213.5 C 267.347,214.966 268.68,215.8 270.5,216C 269.701,217.749 270.368,219.082 272.5,220C 270.43,222.278 268.097,224.111 265.5,225.5C 261.67,227 257.67,227.667 253.5,227.5C 251.821,227.108 250.154,226.608 248.5,226C 247.402,225.23 247.402,224.397 248.5,223.5C 248.918,222.778 249.584,222.278 250.5,222C 249.362,220.266 248.862,218.432 249,216.5C 249.667,217.167 250.333,217.833 251,218.5C 251.671,217.748 252.504,217.414 253.5,217.5C 253.369,218.376 253.702,219.043 254.5,219.5C 258.806,218.014 262.806,216.014 266.5,213.5 Z"/></g>
<g><path style="opacity:1" fill="#222529" d="M 154.5,214.5 C 155.833,214.5 157.167,214.5 158.5,214.5C 158.657,215.873 158.49,217.207 158,218.5C 156.708,217.209 155.542,217.209 154.5,218.5C 153.518,217.859 152.518,217.193 151.5,216.5C 150.198,225.226 150.198,233.892 151.5,242.5C 149.491,242.465 147.491,242.465 145.5,242.5C 145.168,232.81 145.502,223.144 146.5,213.5C 149.194,214.859 151.861,215.192 154.5,214.5 Z"/></g>
<g><path style="opacity:1" fill="#222428" d="M 346.5,209.5 C 347.153,210.807 347.82,212.14 348.5,213.5C 347.833,213.833 347.167,214.167 346.5,214.5C 347.243,215.182 347.909,215.849 348.5,216.5C 340.35,220.743 332.683,225.743 325.5,231.5C 325.923,229.219 325.256,227.552 323.5,226.5C 330.526,220.134 338.193,214.468 346.5,209.5 Z"/></g>
<g><path style="opacity:0.996" fill="#23252a" d="M 155.5,211.5 C 166.73,218.399 177.397,226.065 187.5,234.5C 185.61,234.703 184.11,234.037 183,232.5C 181.984,233.634 181.317,233.301 181,231.5C 179.481,233.139 179.314,234.806 180.5,236.5C 172.127,230.135 163.46,224.135 154.5,218.5C 155.542,217.209 156.708,217.209 158,218.5C 158.49,217.207 158.657,215.873 158.5,214.5C 157.167,214.5 155.833,214.5 154.5,214.5C 153.185,213.105 153.519,212.105 155.5,211.5 Z"/></g>
<g><path style="opacity:1" fill="#1c1e22" d="M 323.5,226.5 C 325.256,227.552 325.923,229.219 325.5,231.5C 323.14,233.853 320.473,235.853 317.5,237.5C 315.037,237.781 312.87,238.781 311,240.5C 309.212,238.977 309.045,237.31 310.5,235.5C 314.324,231.755 318.657,228.755 323.5,226.5 Z"/></g>
<g><path style="opacity:0.999" fill="#1c1f24" d="M 253.5,269.5 C 253.5,272.167 253.5,274.833 253.5,277.5C 254.528,278.074 255.528,278.407 256.5,278.5C 256.08,280.326 256.08,282.326 256.5,284.5C 255.878,285.627 255.045,286.627 254,287.5C 253.501,291.486 253.334,295.486 253.5,299.5C 252.905,302.113 252.071,302.113 251,299.5C 249.795,300.071 248.628,300.738 247.5,301.5C 247.257,308.438 247.257,315.771 247.5,323.5C 247.611,324.117 247.944,324.617 248.5,325C 247.736,327.069 247.236,329.236 247,331.5C 245.992,331.982 244.825,332.148 243.5,332C 244.609,333.813 243.942,334.646 241.5,334.5C 240.833,334.167 240.167,333.833 239.5,333.5C 238.448,331.345 239.114,331.012 241.5,332.5C 242.141,331.007 243.141,330.007 244.5,329.5C 245.819,322.323 245.819,314.99 244.5,307.5C 242.471,306.156 240.471,304.823 238.5,303.5C 237.754,301.864 238.088,300.197 239.5,298.5C 240.325,297.614 241.325,297.281 242.5,297.5C 243.75,297.577 244.583,298.244 245,299.5C 245.773,294.748 245.607,290.081 244.5,285.5C 245.303,284.577 245.47,283.577 245,282.5C 240.187,281.864 238.854,279.531 241,275.5C 241.671,276.252 242.504,276.586 243.5,276.5C 244.117,276.611 244.617,276.944 245,277.5C 245.828,260.662 245.662,243.995 244.5,227.5C 243.448,225.345 244.114,225.012 246.5,226.5C 247.068,228.435 248.235,229.768 250,230.5C 250.945,230.095 251.612,229.428 252,228.5C 252.169,242.339 252.669,256.006 253.5,269.5 Z"/></g>
<g><path style="opacity:1" fill="#202226" d="M 187.5,234.5 C 193.701,237.765 199.368,241.765 204.5,246.5C 201.873,245.908 199.206,245.575 196.5,245.5C 196.5,246.5 196.5,247.5 196.5,248.5C 190.86,244.853 185.527,240.853 180.5,236.5C 179.314,234.806 179.481,233.139 181,231.5C 181.317,233.301 181.984,233.634 183,232.5C 184.11,234.037 185.61,234.703 187.5,234.5 Z"/></g>
<g><path style="opacity:1" fill="#272b2f" d="M 151.5,242.5 C 159.282,246.709 166.616,251.376 173.5,256.5C 172.596,257.209 172.263,258.209 172.5,259.5C 170.508,259.672 168.842,259.005 167.5,257.5C 166.583,258.127 165.583,258.461 164.5,258.5C 160.003,256.419 155.669,254.086 151.5,251.5C 150.502,260.81 150.168,270.143 150.5,279.5C 149.67,271.01 149.17,262.343 149,253.5C 148.667,253.833 148.333,254.167 148,254.5C 146.632,253.007 146.465,251.507 147.5,250C 146.906,249.536 146.239,249.369 145.5,249.5C 145.5,247.167 145.5,244.833 145.5,242.5C 147.491,242.465 149.491,242.465 151.5,242.5 Z"/></g>
<g><path style="opacity:0.993" fill="#222428" d="M 310.5,235.5 C 309.045,237.31 309.212,238.977 311,240.5C 312.87,238.781 315.037,237.781 317.5,237.5C 310.376,243.896 302.709,249.563 294.5,254.5C 293.105,252.621 291.105,251.621 288.5,251.5C 295.471,245.68 302.804,240.347 310.5,235.5 Z"/></g>
<g><path style="opacity:1" fill="#23262b" d="M 353.5,242.5 C 353.5,250.833 353.5,259.167 353.5,267.5C 352.768,268.808 351.934,270.142 351,271.5C 350.825,275.211 350.325,278.878 349.5,282.5C 348.893,282.376 348.56,282.043 348.5,281.5C 348.832,271.478 348.499,261.478 347.5,251.5C 346.817,251.863 346.15,252.196 345.5,252.5C 344.458,251.209 343.292,251.209 342,252.5C 341.391,249.935 341.891,247.601 343.5,245.5C 344.222,244.449 345.222,243.782 346.5,243.5C 348.448,244.131 350.281,245.131 352,246.5C 352.21,244.942 352.71,243.609 353.5,242.5 Z"/></g>
<g><path style="opacity:0.992" fill="#1e2025" d="M 204.5,246.5 C 208.447,248.78 212.113,251.447 215.5,254.5C 215.205,256.423 214.372,258.09 213,259.5C 211.67,258.418 210.17,257.751 208.5,257.5C 204.134,254.984 200.134,251.984 196.5,248.5C 196.5,247.5 196.5,246.5 196.5,245.5C 199.206,245.575 201.873,245.908 204.5,246.5 Z"/></g>
<g><path style="opacity:1" fill="#1f2227" d="M 343.5,245.5 C 341.891,247.601 341.391,249.935 342,252.5C 343.292,251.209 344.458,251.209 345.5,252.5C 336.894,257.492 328.228,262.492 319.5,267.5C 318.032,266.221 317.365,264.554 317.5,262.5C 316.5,262.5 315.5,262.5 314.5,262.5C 324.047,256.694 333.713,251.027 343.5,245.5 Z"/></g>
<g><path style="opacity:1" fill="#1d2024" d="M 288.5,251.5 C 291.105,251.621 293.105,252.621 294.5,254.5C 282.145,264.85 269.478,274.85 256.5,284.5C 256.08,282.326 256.08,280.326 256.5,278.5C 255.528,278.407 254.528,278.074 253.5,277.5C 265.018,268.58 276.685,259.914 288.5,251.5 Z"/></g>
<g><path style="opacity:0.086" fill="#a9a9af" d="M 171.5,262.5 C 173.027,262.427 174.027,263.094 174.5,264.5C 172.973,264.573 171.973,263.906 171.5,262.5 Z"/></g>
<g><path style="opacity:0.988" fill="#1e2025" d="M 173.5,256.5 C 179.241,259.035 184.907,261.868 190.5,265C 200.066,270.608 209.399,276.441 218.5,282.5C 218.539,283.583 218.873,284.583 219.5,285.5C 218.23,286.288 217.23,287.288 216.5,288.5C 208.639,284.406 200.973,280.073 193.5,275.5C 193.027,274.094 192.027,273.427 190.5,273.5C 185.167,270.5 179.833,267.5 174.5,264.5C 174.027,263.094 173.027,262.427 171.5,262.5C 168.669,261.921 166.336,260.588 164.5,258.5C 165.583,258.461 166.583,258.127 167.5,257.5C 168.842,259.005 170.508,259.672 172.5,259.5C 172.263,258.209 172.596,257.209 173.5,256.5 Z"/></g>
<g><path style="opacity:1" fill="#212428" d="M 215.5,254.5 C 225.145,261.483 234.478,268.816 243.5,276.5C 242.504,276.586 241.671,276.252 241,275.5C 238.854,279.531 240.187,281.864 245,282.5C 245.47,283.577 245.303,284.577 244.5,285.5C 232.504,276.172 220.504,266.838 208.5,257.5C 210.17,257.751 211.67,258.418 213,259.5C 214.372,258.09 215.205,256.423 215.5,254.5 Z"/></g>
<g><path style="opacity:0.997" fill="#202328" d="M 314.5,262.5 C 315.5,262.5 316.5,262.5 317.5,262.5C 317.365,264.554 318.032,266.221 319.5,267.5C 313.721,271.125 307.721,274.459 301.5,277.5C 300.571,276.685 299.571,275.852 298.5,275C 300.857,273.78 300.524,272.947 297.5,272.5C 302.913,268.8 308.58,265.466 314.5,262.5 Z"/></g>
<g><path style="opacity:0.09" fill="#979d9e" d="M 190.5,273.5 C 192.027,273.427 193.027,274.094 193.5,275.5C 191.973,275.573 190.973,274.906 190.5,273.5 Z"/></g>
<g><path style="opacity:0.996" fill="#1d1f24" d="M 297.5,272.5 C 300.524,272.947 300.857,273.78 298.5,275C 299.571,275.852 300.571,276.685 301.5,277.5C 295.045,281.802 288.378,285.802 281.5,289.5C 280.761,289.631 280.094,289.464 279.5,289C 280.696,288.346 280.696,287.846 279.5,287.5C 277.69,291.493 274.69,292.993 270.5,292C 271.167,291.667 271.833,291.333 272.5,291C 271.263,290.768 270.263,290.268 269.5,289.5C 278.53,283.319 287.863,277.652 297.5,272.5 Z"/></g>
<g><path style="opacity:0.994" fill="#222428" d="M 218.5,282.5 C 227.025,286.698 235.025,291.698 242.5,297.5C 241.325,297.281 240.325,297.614 239.5,298.5C 238.088,300.197 237.754,301.864 238.5,303.5C 230.887,298.884 223.554,293.884 216.5,288.5C 217.23,287.288 218.23,286.288 219.5,285.5C 218.873,284.583 218.539,283.583 218.5,282.5 Z"/></g>
<g><path style="opacity:1" fill="#23262b" d="M 353.5,267.5 C 353.5,295.167 353.5,322.833 353.5,350.5C 351.262,351.537 348.929,351.703 346.5,351C 346.957,350.586 347.291,350.086 347.5,349.5C 346.398,348.824 345.398,348.158 344.5,347.5C 345.833,347.5 347.167,347.5 348.5,347.5C 348.5,328.5 348.5,309.5 348.5,290.5C 347.5,290.5 346.5,290.5 345.5,290.5C 345.728,289.331 345.228,287.997 344,286.5C 341.907,287.234 341.407,286.567 342.5,284.5C 344.289,283.123 346.289,282.123 348.5,281.5C 348.56,282.043 348.893,282.376 349.5,282.5C 350.325,278.878 350.825,275.211 351,271.5C 351.934,270.142 352.768,268.808 353.5,267.5 Z"/></g>
<g><path style="opacity:0.894" fill="#2b2e34" d="M 145.5,249.5 C 146.239,249.369 146.906,249.536 147.5,250C 146.465,251.507 146.632,253.007 148,254.5C 148.333,254.167 148.667,253.833 149,253.5C 149.17,262.343 149.67,271.01 150.5,279.5C 150.782,280.778 151.449,281.778 152.5,282.5C 149.068,284.07 148.568,286.404 151,289.5C 151.777,287.299 152.944,287.299 154.5,289.5C 154.137,290.183 153.804,290.85 153.5,291.5C 152.85,291.196 152.183,290.863 151.5,290.5C 150.5,308.821 150.167,327.155 150.5,345.5C 149.833,327.995 149.167,310.329 148.5,292.5C 146.299,290.944 146.299,289.777 148.5,289C 147.756,287.961 146.756,287.461 145.5,287.5C 145.5,274.833 145.5,262.167 145.5,249.5 Z"/></g>
<g><path style="opacity:0.999" fill="#222529" d="M 342.5,284.5 C 341.407,286.567 341.907,287.234 344,286.5C 345.228,287.997 345.728,289.331 345.5,290.5C 329.949,298.605 313.949,306.272 297.5,313.5C 296.167,313.5 294.833,313.5 293.5,313.5C 293.5,312.167 293.5,310.833 293.5,309.5C 309.732,300.884 326.065,292.551 342.5,284.5 Z"/></g>
<g><path style="opacity:1" fill="#1c1f23" d="M 152.5,282.5 C 158.148,284.657 163.481,287.324 168.5,290.5C 169.431,292.033 170.098,293.7 170.5,295.5C 170.253,296.713 169.586,297.38 168.5,297.5C 163.569,295.35 158.569,293.35 153.5,291.5C 153.804,290.85 154.137,290.183 154.5,289.5C 152.944,287.299 151.777,287.299 151,289.5C 148.568,286.404 149.068,284.07 152.5,282.5 Z"/></g>
<g><path style="opacity:0.947" fill="#2a2c30" d="M 168.5,290.5 C 176.789,294.173 184.789,298.173 192.5,302.5C 190.516,302.383 188.85,303.05 187.5,304.5C 189.769,305.005 191.103,306.338 191.5,308.5C 183.427,305.382 175.761,301.715 168.5,297.5C 169.586,297.38 170.253,296.713 170.5,295.5C 170.098,293.7 169.431,292.033 168.5,290.5 Z"/></g>
<g><path style="opacity:1" fill="#202327" d="M 281.5,289.5 C 273.233,295.311 264.9,301.144 256.5,307C 255.552,307.483 254.552,307.649 253.5,307.5C 252.427,306.749 252.26,305.749 253,304.5C 254.41,303.213 255.91,302.046 257.5,301C 256.244,300.583 255.577,299.75 255.5,298.5C 259.627,294.715 264.294,291.715 269.5,289.5C 270.263,290.268 271.263,290.768 272.5,291C 271.833,291.333 271.167,291.667 270.5,292C 274.69,292.993 277.69,291.493 279.5,287.5C 280.696,287.846 280.696,288.346 279.5,289C 280.094,289.464 280.761,289.631 281.5,289.5 Z"/></g>
<g><path style="opacity:1" fill="#15181d" d="M 145.5,287.5 C 146.756,287.461 147.756,287.961 148.5,289C 146.299,289.777 146.299,290.944 148.5,292.5C 149.167,310.329 149.833,327.995 150.5,345.5C 150.5,346.167 150.5,346.833 150.5,347.5C 180.997,348.332 211.664,348.832 242.5,349C 214.833,349.333 187.167,349.667 159.5,350C 156.434,351.428 153.434,351.928 150.5,351.5C 153.447,352.321 156.447,352.821 159.5,353C 154.845,353.499 150.179,353.666 145.5,353.5C 144.662,353.158 144.328,352.492 144.5,351.5C 145.497,330.34 145.831,309.007 145.5,287.5 Z"/></g>
<g><path style="opacity:0.789" fill="#2a2b2e" d="M 355.5,228.5 C 355.827,270.239 355.494,311.906 354.5,353.5C 310.155,353.884 277.821,353.55 257.5,352.5C 284.308,352.316 310.975,352.316 337.5,352.5C 343.211,352.495 348.544,351.828 353.5,350.5C 353.5,322.833 353.5,295.167 353.5,267.5C 353.5,259.167 353.5,250.833 353.5,242.5C 352.897,237.381 353.564,232.715 355.5,228.5 Z"/></g>
<g><path style="opacity:0.999" fill="#161a21" d="M 255.5,298.5 C 255.577,299.75 256.244,300.583 257.5,301C 255.91,302.046 254.41,303.213 253,304.5C 252.26,305.749 252.427,306.749 253.5,307.5C 253.5,309.5 253.5,311.5 253.5,313.5C 252.368,316.628 251.535,319.962 251,323.5C 250.692,322.692 250.192,322.025 249.5,321.5C 248.304,321.846 248.304,322.346 249.5,323C 248.906,323.464 248.239,323.631 247.5,323.5C 247.257,315.771 247.257,308.438 247.5,301.5C 248.628,300.738 249.795,300.071 251,299.5C 252.071,302.113 252.905,302.113 253.5,299.5C 254.167,299.167 254.833,298.833 255.5,298.5 Z"/></g>
<g><path style="opacity:1" fill="#1e2024" d="M 192.5,302.5 C 202.772,307.673 212.772,313.006 222.5,318.5C 222.286,320.144 222.62,321.644 223.5,323C 222.181,323.195 220.847,323.028 219.5,322.5C 209.93,317.997 200.596,313.331 191.5,308.5C 191.103,306.338 189.769,305.005 187.5,304.5C 188.85,303.05 190.516,302.383 192.5,302.5 Z"/></g>
<g><path style="opacity:0.993" fill="#27292f" d="M 293.5,309.5 C 293.5,310.833 293.5,312.167 293.5,313.5C 294.833,313.5 296.167,313.5 297.5,313.5C 288.758,318.535 279.758,323.202 270.5,327.5C 270.721,326.265 271.388,325.265 272.5,324.5C 274.902,323.425 277.236,322.258 279.5,321C 278.627,319.955 277.627,319.122 276.5,318.5C 281.895,315.134 287.561,312.134 293.5,309.5 Z"/></g>
<g><path style="opacity:0.973" fill="#24272b" d="M 222.5,318.5 C 230.25,321.412 237.584,325.078 244.5,329.5C 243.141,330.007 242.141,331.007 241.5,332.5C 239.114,331.012 238.448,331.345 239.5,333.5C 232.534,330.195 225.868,326.528 219.5,322.5C 220.847,323.028 222.181,323.195 223.5,323C 222.62,321.644 222.286,320.144 222.5,318.5 Z"/></g>
<g><path style="opacity:1" fill="#202327" d="M 276.5,318.5 C 277.627,319.122 278.627,319.955 279.5,321C 277.236,322.258 274.902,323.425 272.5,324.5C 271.388,325.265 270.721,326.265 270.5,327.5C 267.869,329.153 265.203,330.819 262.5,332.5C 262.302,329.626 260.302,328.293 256.5,328.5C 263.118,324.967 269.785,321.634 276.5,318.5 Z"/></g>
<g><path style="opacity:0.999" fill="#22262b" d="M 253.5,313.5 C 253.172,318.875 253.505,324.208 254.5,329.5C 255.183,329.137 255.85,328.804 256.5,328.5C 260.302,328.293 262.302,329.626 262.5,332.5C 259.845,334.149 257.178,335.816 254.5,337.5C 253.534,339.396 253.201,341.396 253.5,343.5C 251.914,344.413 250.414,344.413 249,343.5C 248.121,341.104 247.454,338.771 247,336.5C 246.817,339.365 246.317,342.031 245.5,344.5C 246.426,340.07 245.093,336.737 241.5,334.5C 243.942,334.646 244.609,333.813 243.5,332C 244.825,332.148 245.992,331.982 247,331.5C 247.236,329.236 247.736,327.069 248.5,325C 247.944,324.617 247.611,324.117 247.5,323.5C 248.239,323.631 248.906,323.464 249.5,323C 248.304,322.346 248.304,321.846 249.5,321.5C 250.192,322.025 250.692,322.692 251,323.5C 251.535,319.962 252.368,316.628 253.5,313.5 Z"/></g>
<g><path style="opacity:0.982" fill="#12151a" d="M 253.5,343.5 C 253.232,345.099 253.566,346.432 254.5,347.5C 283.997,348.332 313.664,348.832 343.5,349C 313.762,349.175 284.095,349.675 254.5,350.5C 253.883,350.611 253.383,350.944 253,351.5C 251.56,347.268 249.227,346.601 246,349.5C 245.283,348.956 244.783,348.289 244.5,347.5C 245.404,346.791 245.737,345.791 245.5,344.5C 246.317,342.031 246.817,339.365 247,336.5C 247.454,338.771 248.121,341.104 249,343.5C 250.414,344.413 251.914,344.413 253.5,343.5 Z"/></g>
<g><path style="opacity:0.998" fill="#33373b" d="M 150.5,347.5 C 181.833,347.5 213.167,347.5 244.5,347.5C 244.783,348.289 245.283,348.956 246,349.5C 249.227,346.601 251.56,347.268 253,351.5C 253.383,350.944 253.883,350.611 254.5,350.5C 255.5,351.167 256.5,351.833 257.5,352.5C 277.821,353.55 310.155,353.884 354.5,353.5C 284.833,354.833 215.167,354.833 145.5,353.5C 150.179,353.666 154.845,353.499 159.5,353C 156.447,352.821 153.447,352.321 150.5,351.5C 153.434,351.928 156.434,351.428 159.5,350C 187.167,349.667 214.833,349.333 242.5,349C 211.664,348.832 180.997,348.332 150.5,347.5 Z"/></g>
<g><path style="opacity:0.998" fill="#21252a" d="M 254.5,347.5 C 284.5,347.5 314.5,347.5 344.5,347.5C 345.398,348.158 346.398,348.824 347.5,349.5C 347.291,350.086 346.957,350.586 346.5,351C 348.929,351.703 351.262,351.537 353.5,350.5C 348.544,351.828 343.211,352.495 337.5,352.5C 310.975,352.316 284.308,352.316 257.5,352.5C 256.5,351.833 255.5,351.167 254.5,350.5C 284.095,349.675 313.762,349.175 343.5,349C 313.664,348.832 283.997,348.332 254.5,347.5 Z"/></g>
<g><path style="opacity:0.227" fill="#494c4f" d="M 241.5,367.5 C 234.5,367.5 227.5,367.5 220.5,367.5C 220.5,369.167 220.5,370.833 220.5,372.5C 219.539,370.735 219.205,368.735 219.5,366.5C 227.019,366.175 234.352,366.508 241.5,367.5 Z"/></g>
<g><path style="opacity:0.965" fill="#292c2f" d="M 304.5,370.5 C 302.721,368.656 300.388,367.99 297.5,368.5C 296.991,378.993 296.324,389.326 295.5,399.5C 295.984,388.389 295.317,377.389 293.5,366.5C 302.833,366.5 312.167,366.5 321.5,366.5C 321.5,368.833 321.5,371.167 321.5,373.5C 318.484,373.159 315.818,371.993 313.5,370C 310.408,369.264 307.408,369.431 304.5,370.5 Z"/></g>
<g><path style="opacity:0.901" fill="#232629" d="M 155.5,374.5 C 155.5,373.167 155.5,371.833 155.5,370.5C 153.833,370.5 152.167,370.5 150.5,370.5C 160.259,362.6 169.926,362.933 179.5,371.5C 181.862,376.702 180.195,379.368 174.5,379.5C 173.37,373.7 170.037,369.7 164.5,367.5C 160.572,368.774 157.572,371.107 155.5,374.5 Z"/></g>
<g><path style="opacity:1" fill="#23272c" d="M 277.5,367.5 C 276.306,368.272 275.306,369.272 274.5,370.5C 271.946,369.612 269.279,369.279 266.5,369.5C 266.167,371.5 265.833,373.5 265.5,375.5C 264.009,372.77 262.675,372.937 261.5,376C 261.662,381.404 262.328,387.571 263.5,394.5C 262.738,394.911 261.738,395.077 260.5,395C 261.28,396.073 261.113,397.24 260,398.5C 259.808,396.423 259.308,394.423 258.5,392.5C 257.818,393.243 257.151,393.909 256.5,394.5C 256.752,385.127 256.418,375.793 255.5,366.5C 263.019,366.175 270.352,366.508 277.5,367.5 Z"/></g>
<g><path style="opacity:1" fill="#1c1e24" d="M 304.5,370.5 C 303.838,374.466 303.505,378.466 303.5,382.5C 305.5,382.5 307.5,382.5 309.5,382.5C 302.909,384.592 303.076,385.592 310,385.5C 311.833,385.333 313.667,385.167 315.5,385C 315.957,384.586 316.291,384.086 316.5,383.5C 314.604,382.534 312.604,382.201 310.5,382.5C 312.607,381.532 314.941,381.198 317.5,381.5C 317.5,383.5 317.5,385.5 317.5,387.5C 312.848,387.002 308.181,386.669 303.5,386.5C 303.068,392.004 303.735,397.337 305.5,402.5C 306.293,402.931 307.127,403.265 308,403.5C 312.657,402.582 317.157,401.249 321.5,399.5C 321.756,401.792 321.423,403.959 320.5,406C 311.506,406.5 302.506,406.666 293.5,406.5C 293.41,403.848 294.076,401.515 295.5,399.5C 296.324,389.326 296.991,378.993 297.5,368.5C 300.388,367.99 302.721,368.656 304.5,370.5 Z"/></g>
<g><path style="opacity:0.997" fill="#1b1e23" d="M 196.5,368.5 C 198.991,368.829 201.157,369.829 203,371.5C 204.654,376.023 205.321,380.356 205,384.5C 204.346,383.304 203.846,383.304 203.5,384.5C 204.472,386.636 206.139,387.803 208.5,388C 205.456,388.359 205.122,389.026 207.5,390C 205.699,390.317 205.366,390.984 206.5,392C 205.552,392.483 204.552,392.649 203.5,392.5C 202.596,391.791 202.263,390.791 202.5,389.5C 199.482,389.335 196.482,389.502 193.5,390C 190.661,394.894 189.827,400.061 191,405.5C 188.619,406.435 186.119,406.768 183.5,406.5C 187.528,393.715 191.862,381.048 196.5,368.5 Z M 197.5,376.5 C 199.194,379.575 200.028,382.908 200,386.5C 197.8,387.99 195.966,387.657 194.5,385.5C 195.35,382.427 196.35,379.427 197.5,376.5 Z"/></g>
<g><path style="opacity:0.999" fill="#1f2226" d="M 351.5,392.5 C 352.817,384.701 353.483,376.701 353.5,368.5C 349.828,367.955 350.162,367.622 354.5,367.5C 354.5,380.5 354.5,393.5 354.5,406.5C 351.635,406.945 349.135,406.278 347,404.5C 340.667,396.167 334.333,387.833 328,379.5C 327.413,388.54 328.913,397.207 332.5,405.5C 329.914,406.48 327.247,406.813 324.5,406.5C 324.5,393.167 324.5,379.833 324.5,366.5C 326.857,366.337 329.19,366.503 331.5,367C 337.972,376.361 344.639,384.861 351.5,392.5 Z"/></g>
<g><path style="opacity:0.999" fill="#191c21" d="M 241.5,367.5 C 240.391,368.29 239.058,368.79 237.5,369C 238.738,369.69 238.738,370.19 237.5,370.5C 234.946,369.612 232.279,369.279 229.5,369.5C 229.5,374.167 229.5,378.833 229.5,383.5C 232.609,383.736 235.609,383.403 238.5,382.5C 239.239,382.369 239.906,382.536 240.5,383C 237.779,384.651 237.446,386.318 239.5,388C 237.803,388.384 236.137,388.218 234.5,387.5C 232.833,387.5 231.167,387.5 229.5,387.5C 229.5,393.833 229.5,400.167 229.5,406.5C 226.167,406.5 222.833,406.5 219.5,406.5C 220.111,400 220.777,393.5 221.5,387C 221.042,382.171 220.709,377.338 220.5,372.5C 220.5,370.833 220.5,369.167 220.5,367.5C 227.5,367.5 234.5,367.5 241.5,367.5 Z"/></g>
<g><path style="opacity:0.903" fill="#282a2e" d="M 354.5,367.5 C 350.162,367.622 349.828,367.955 353.5,368.5C 353.483,376.701 352.817,384.701 351.5,392.5C 351.666,387.821 351.499,383.155 351,378.5C 349.537,374.577 348.37,370.577 347.5,366.5C 350.059,366.198 352.393,366.532 354.5,367.5 Z"/></g>
<g><path style="opacity:1" fill="#1d2024" d="M 241.5,367.5 C 248.91,369.434 251.41,374.1 249,381.5C 247.122,383.68 244.956,385.513 242.5,387C 244.407,388.069 245.741,389.569 246.5,391.5C 245.213,390.472 244.046,390.805 243,392.5C 241.715,392.05 240.548,391.383 239.5,390.5C 238.702,390.957 238.369,391.624 238.5,392.5C 236.937,391.055 235.604,389.389 234.5,387.5C 236.137,388.218 237.803,388.384 239.5,388C 237.446,386.318 237.779,384.651 240.5,383C 239.906,382.536 239.239,382.369 238.5,382.5C 240.067,378.282 239.734,374.282 237.5,370.5C 238.738,370.19 238.738,369.69 237.5,369C 239.058,368.79 240.391,368.29 241.5,367.5 Z"/></g>
<g><path style="opacity:1" fill="#181c21" d="M 150.5,370.5 C 152.167,370.5 153.833,370.5 155.5,370.5C 155.5,371.833 155.5,373.167 155.5,374.5C 154.957,377.218 154.291,379.885 153.5,382.5C 152.686,384.631 152.186,386.964 152,389.5C 149.783,385.556 148.283,385.723 147.5,390C 149.059,390.98 150.726,391.813 152.5,392.5C 152.162,394.655 152.162,396.989 152.5,399.5C 149.306,399.824 148.306,398.658 149.5,396C 148.491,393.828 146.824,392.662 144.5,392.5C 143.428,387.507 143.594,382.507 145,377.5C 146.371,374.734 148.204,372.401 150.5,370.5 Z"/></g>
<g><path style="opacity:1" fill="#111418" d="M 309.5,382.5 C 309.833,382.5 310.167,382.5 310.5,382.5C 312.604,382.201 314.604,382.534 316.5,383.5C 316.291,384.086 315.957,384.586 315.5,385C 313.667,385.167 311.833,385.333 310,385.5C 303.076,385.592 302.909,384.592 309.5,382.5 Z"/></g>
<g><path style="opacity:1" fill="#1e2226" d="M 175.5,403.5 C 175.938,403.565 176.272,403.399 176.5,403C 174.68,402.8 173.347,401.966 172.5,400.5C 172.383,398.516 173.05,396.85 174.5,395.5C 172.879,392.348 171.879,389.015 171.5,385.5C 174.833,385.5 178.167,385.5 181.5,385.5C 181.5,392.5 181.5,399.5 181.5,406.5C 178.68,406.913 176.68,405.913 175.5,403.5 Z"/></g>
<g><path style="opacity:1" fill="#1e2126" d="M 277.5,367.5 C 286.651,370.164 291.651,376.33 292.5,386C 291.999,393.678 288.665,399.678 282.5,404C 280.846,404.608 279.179,405.108 277.5,405.5C 276.365,403.787 274.698,403.12 272.5,403.5C 275.587,402.947 278.087,401.28 280,398.5C 280.94,394.515 281.773,390.515 282.5,386.5C 281.979,382.769 281.146,379.102 280,375.5C 278.945,372.944 277.112,371.277 274.5,370.5C 275.306,369.272 276.306,368.272 277.5,367.5 Z"/></g>
<g><path style="opacity:1" fill="#1e2126" d="M 214.5,399.5 C 214.427,401.027 215.094,402.027 216.5,402.5C 216.539,403.583 216.873,404.583 217.5,405.5C 213.217,406.492 208.884,406.826 204.5,406.5C 204.774,401.737 204.441,397.07 203.5,392.5C 204.552,392.649 205.552,392.483 206.5,392C 205.366,390.984 205.699,390.317 207.5,390C 205.122,389.026 205.456,388.359 208.5,388C 206.139,387.803 204.472,386.636 203.5,384.5C 203.846,383.304 204.346,383.304 205,384.5C 205.321,380.356 204.654,376.023 203,371.5C 201.157,369.829 198.991,368.829 196.5,368.5C 196.611,367.883 196.944,367.383 197.5,367C 199.473,366.505 201.473,366.338 203.5,366.5C 207.005,377.507 210.672,388.507 214.5,399.5 Z"/></g>
<g><path style="opacity:0.996" fill="#26282c" d="M 153.5,382.5 C 152.62,390.15 154.62,396.817 159.5,402.5C 164.288,404.196 168.622,403.529 172.5,400.5C 173.347,401.966 174.68,402.8 176.5,403C 176.272,403.399 175.938,403.565 175.5,403.5C 166.23,409.152 157.397,408.486 149,401.5C 146.94,398.714 145.44,395.714 144.5,392.5C 146.824,392.662 148.491,393.828 149.5,396C 148.306,398.658 149.306,399.824 152.5,399.5C 152.162,396.989 152.162,394.655 152.5,392.5C 150.726,391.813 149.059,390.98 147.5,390C 148.283,385.723 149.783,385.556 152,389.5C 152.186,386.964 152.686,384.631 153.5,382.5 Z"/></g>
<g><path style="opacity:1" fill="#1a1d22" d="M 246.5,391.5 C 250.145,395.834 252.478,400.834 253.5,406.5C 250.102,406.82 246.768,406.487 243.5,405.5C 241.956,401.098 240.29,396.765 238.5,392.5C 238.369,391.624 238.702,390.957 239.5,390.5C 240.548,391.383 241.715,392.05 243,392.5C 244.046,390.805 245.213,390.472 246.5,391.5 Z"/></g>
<g><path style="opacity:1" fill="#15181d" d="M 265.5,375.5 C 264.226,383.79 264.226,392.124 265.5,400.5C 265.5,401.5 265.5,402.5 265.5,403.5C 266.5,403.5 267.5,403.5 268.5,403.5C 269.833,403.5 271.167,403.5 272.5,403.5C 274.698,403.12 276.365,403.787 277.5,405.5C 270.352,406.492 263.019,406.825 255.5,406.5C 256.162,402.534 256.495,398.534 256.5,394.5C 257.151,393.909 257.818,393.243 258.5,392.5C 259.308,394.423 259.808,396.423 260,398.5C 261.113,397.24 261.28,396.073 260.5,395C 261.738,395.077 262.738,394.911 263.5,394.5C 262.328,387.571 261.662,381.404 261.5,376C 262.675,372.937 264.009,372.77 265.5,375.5 Z"/></g>
<g><path style="opacity:0.247" fill="#9c9e9e" d="M 214.5,399.5 C 215.906,399.973 216.573,400.973 216.5,402.5C 215.094,402.027 214.427,401.027 214.5,399.5 Z"/></g>
<g><path style="opacity:0.075" fill="#aeb8b9" d="M 265.5,400.5 C 266.5,401.5 267.5,402.5 268.5,403.5C 267.5,403.5 266.5,403.5 265.5,403.5C 265.5,402.5 265.5,401.5 265.5,400.5 Z"/></g>
<g><path style="opacity:0.465" fill="#353535" d="M 268.5,421.5 C 268.5,422.167 268.167,422.5 267.5,422.5C 265.958,421.699 264.292,421.366 262.5,421.5C 261.549,422.919 261.216,424.585 261.5,426.5C 263.548,426.16 264.548,426.493 264.5,427.5C 263.141,428.007 262.141,429.007 261.5,430.5C 260.509,426.555 260.176,422.555 260.5,418.5C 263.831,418.018 266.497,419.018 268.5,421.5 Z"/></g>
<g><path style="opacity:0.715" fill="#696969" d="M 294.5,418.5 C 295.117,418.611 295.617,418.944 296,419.5C 296.499,423.152 296.665,426.818 296.5,430.5C 295.5,430.5 294.5,430.5 293.5,430.5C 293.237,426.4 293.57,422.4 294.5,418.5 Z"/></g>
<g><path style="opacity:1" fill="#2f3238" d="M 146.5,421.5 C 147.751,423.22 149.251,423.553 151,422.5C 165.425,423.325 179.925,423.825 194.5,424C 194.957,424.414 195.291,424.914 195.5,425.5C 178.843,426.333 162.177,426.833 145.5,427C 162.497,427.5 179.497,427.667 196.5,427.5C 179.341,428.497 162.008,428.83 144.5,428.5C 143.99,425.612 144.656,423.279 146.5,421.5 Z"/></g>
<g><path style="opacity:0.697" fill="#4c4c4c" d="M 220.5,418.5 C 227.673,419.68 229.673,423.514 226.5,430C 222.402,431.147 218.902,430.314 216,427.5C 215.333,425.833 215.333,424.167 216,422.5C 217.667,421.267 219.167,419.933 220.5,418.5 Z M 220.5,421.5 C 222.981,421.323 224.814,422.323 226,424.5C 226.507,425.996 226.007,427.163 224.5,428C 218.681,428.526 217.348,426.359 220.5,421.5 Z"/></g>
<g><path style="opacity:0.206" fill="#404040" d="M 289.5,421.5 C 289.737,422.791 289.404,423.791 288.5,424.5C 286.964,421.908 284.631,420.908 281.5,421.5C 281.5,423.833 281.5,426.167 281.5,428.5C 283.167,429.167 284.833,429.833 286.5,430.5C 284.167,430.5 281.833,430.5 279.5,430.5C 279.207,426.563 279.54,422.73 280.5,419C 284.034,418.136 287.034,418.969 289.5,421.5 Z"/></g>
<g><path style="opacity:1" fill="#23262a" d="M 302.5,421.5 C 319.833,421.5 337.167,421.5 354.5,421.5C 354.5,423.833 354.5,426.167 354.5,428.5C 337.497,428.667 320.497,428.5 303.5,428C 301.316,426.102 300.983,423.936 302.5,421.5 Z"/></g>
<g><path style="opacity:0.592" fill="#404040" d="M 204.5,418.5 C 211.129,417.796 214.129,420.796 213.5,427.5C 213.392,428.442 213.059,429.275 212.5,430C 209.518,430.498 206.518,430.665 203.5,430.5C 203.237,426.4 203.57,422.4 204.5,418.5 Z M 206.5,421.5 C 207.978,421.238 209.311,421.571 210.5,422.5C 209.68,424.111 208.346,424.778 206.5,424.5C 206.5,423.5 206.5,422.5 206.5,421.5 Z M 206.5,425.5 C 209.034,425.259 210.7,426.259 211.5,428.5C 209.833,428.5 208.167,428.5 206.5,428.5C 206.5,427.5 206.5,426.5 206.5,425.5 Z"/></g>
<g><path style="opacity:0.726" fill="#0f1215" d="M 146.5,421.5 C 163.17,421.333 179.837,421.5 196.5,422C 197.807,423.943 197.807,425.777 196.5,427.5C 179.497,427.667 162.497,427.5 145.5,427C 162.177,426.833 178.843,426.333 195.5,425.5C 195.291,424.914 194.957,424.414 194.5,424C 179.925,423.825 165.425,423.325 151,422.5C 149.251,423.553 147.751,423.22 146.5,421.5 Z"/></g>
<g><path style="opacity:0.639" fill="#505050" d="M 249.5,418.5 C 255.937,419.706 257.937,423.372 255.5,429.5C 251.73,431.024 248.23,430.691 245,428.5C 243.558,423.723 245.058,420.39 249.5,418.5 Z M 248.5,421.5 C 254.016,421.473 255.349,423.64 252.5,428C 246.704,428.574 245.37,426.407 248.5,421.5 Z"/></g>
<g><path style="opacity:0.714" fill="#505050" d="M 262.5,421.5 C 262.5,422.833 262.5,424.167 262.5,425.5C 265.034,425.741 266.7,424.741 267.5,422.5C 268.167,422.5 268.5,422.167 268.5,421.5C 268.812,424.234 269.145,427.068 269.5,430C 267.072,430.747 265.406,429.914 264.5,427.5C 264.548,426.493 263.548,426.16 261.5,426.5C 261.216,424.585 261.549,422.919 262.5,421.5 Z M 262.5,421.5 C 264.292,421.366 265.958,421.699 267.5,422.5C 266.7,424.741 265.034,425.741 262.5,425.5C 262.5,424.167 262.5,422.833 262.5,421.5 Z"/></g>
<g><path style="opacity:0.541" fill="#454545" d="M 273.5,418.5 C 274.117,418.611 274.617,418.944 275,419.5C 275.825,423.211 275.659,426.878 274.5,430.5C 273.509,426.555 273.176,422.555 273.5,418.5 Z"/></g>
<g><path style="opacity:0.122" fill="#939295" d="M 206.5,425.5 C 206.5,426.5 206.5,427.5 206.5,428.5C 208.167,428.5 209.833,428.5 211.5,428.5C 209.735,429.461 207.735,429.795 205.5,429.5C 205.232,427.901 205.566,426.568 206.5,425.5 Z"/></g>
<g><path style="opacity:0.451" fill="#535353" d="M 235.5,418.5 C 237.842,418.504 239.842,419.337 241.5,421C 241,421.5 240.5,422 240,422.5C 235.1,420.662 233.1,422.329 234,427.5C 235.699,428.406 237.533,428.739 239.5,428.5C 239.238,427.022 239.571,425.689 240.5,424.5C 241.76,426.353 241.76,428.186 240.5,430C 233.026,432.508 229.859,430.008 231,422.5C 232.25,420.807 233.75,419.473 235.5,418.5 Z"/></g>
<g><path style="opacity:0.631" fill="#6a6a6a" d="M 289.5,421.5 C 290.629,423.628 290.796,425.961 290,428.5C 289.184,429.823 288.017,430.489 286.5,430.5C 284.833,429.833 283.167,429.167 281.5,428.5C 285.222,429.32 287.555,427.987 288.5,424.5C 289.404,423.791 289.737,422.791 289.5,421.5 Z"/></g>
</svg>
