<?xml version="1.0" encoding="UTF-8"?>
<!DOCTYPE svg PUBLIC "-//W3C//DTD SVG 1.1//EN" "http://www.w3.org/Graphics/SVG/1.1/DTD/svg11.dtd">
<svg xmlns="http://www.w3.org/2000/svg" version="1.1" width="500px" height="500px" style="shape-rendering:geometricPrecision; text-rendering:geometricPrecision; image-rendering:optimizeQuality; fill-rule:evenodd; clip-rule:evenodd" xmlns:xlink="http://www.w3.org/1999/xlink">
<g><path style="opacity:0.984" fill="#e9e9ea" d="M 232.5,68.5 C 279.126,63.5659 315.292,80.5659 341,119.5C 349.577,135.364 354.244,152.364 355,170.5C 355.829,231.541 355.663,292.541 354.5,353.5C 284.599,354.831 214.765,354.831 145,353.5C 144.333,288.167 144.333,222.833 145,157.5C 155.258,109.077 184.425,79.4099 232.5,68.5 Z M 234.5,74.5 C 286.936,71.1529 323.436,93.4862 344,141.5C 345.867,147.698 347.201,154.032 348,160.5C 348.833,176.51 348.666,192.51 347.5,208.5C 315.621,230.548 284.454,253.548 254,277.5C 253.5,260.837 253.333,244.17 253.5,227.5C 268.045,225.49 282.378,222.324 296.5,218C 316.854,209.461 324.688,194.295 320,172.5C 316.734,160.902 312.067,149.902 306,139.5C 304.453,134.874 303.12,130.207 302,125.5C 299.757,123.213 297.257,123.047 294.5,125C 293.874,125.75 293.374,126.584 293,127.5C 293.997,144.155 294.664,160.821 295,177.5C 288.828,198.506 275.328,212.506 254.5,219.5C 253.386,218.277 253.219,216.944 254,215.5C 279.388,198.696 288.388,175.362 281,145.5C 274.141,127.042 263.808,110.709 250,96.5C 232.478,113.417 221.144,133.75 216,157.5C 213.855,183.011 223.688,202.011 245.5,214.5C 245.66,216.199 245.494,217.866 245,219.5C 223.737,211.904 210.071,197.238 204,175.5C 203.833,172.667 203.667,169.833 203.5,167C 204.881,156.164 206.215,145.331 207.5,134.5C 206.77,131.891 206.27,129.224 206,126.5C 203.396,123.226 200.563,122.893 197.5,125.5C 195.692,135.443 191.858,144.443 186,152.5C 184.491,156.85 182.824,161.183 181,165.5C 173.79,185.176 178.29,201.342 194.5,214C 210.683,221.415 227.683,225.915 245.5,227.5C 245.667,244.17 245.5,260.837 245,277.5C 214.513,253.011 183.18,229.678 151,207.5C 150.125,190.468 150.458,173.468 152,156.5C 160.085,118.738 182.251,92.9044 218.5,79C 223.977,77.5994 229.311,76.0994 234.5,74.5 Z M 249.5,106.5 C 265.514,122.541 274.847,141.874 277.5,164.5C 276.355,180.604 269.689,193.937 257.5,204.5C 255.178,206.243 252.678,207.577 250,208.5C 232.16,199.685 222.993,185.185 222.5,165C 223.645,148.229 229.145,133.062 239,119.5C 242.334,115.003 245.834,110.67 249.5,106.5 Z M 198.5,143.5 C 199.043,143.56 199.376,143.893 199.5,144.5C 196.592,159.293 197.092,173.96 201,188.5C 205.764,199.597 213.098,208.597 223,215.5C 223.432,216.6 222.932,217.267 221.5,217.5C 208.75,214.971 197.917,208.971 189,199.5C 183.786,189.17 183.12,178.503 187,167.5C 190.562,159.375 194.396,151.375 198.5,143.5 Z M 300.5,143.5 C 306.619,152.656 311.119,162.656 314,173.5C 317.249,187.81 313.083,199.31 301.5,208C 293.103,213.044 284.103,216.044 274.5,217C 293.42,204.331 302.754,186.498 302.5,163.5C 301.508,156.866 300.842,150.2 300.5,143.5 Z M 150.5,216.5 C 158.954,220.898 166.954,226.065 174.5,232C 197.824,249.988 221.157,267.988 244.5,286C 245.632,290.413 245.799,294.913 245,299.5C 236.117,292.958 226.951,286.791 217.5,281C 195.09,268.259 172.923,255.092 151,241.5C 150.5,233.173 150.334,224.84 150.5,216.5 Z M 347.5,216.5 C 348.492,224.316 348.826,232.316 348.5,240.5C 348.586,241.496 348.252,242.329 347.5,243C 315.513,260.691 284.347,279.524 254,299.5C 251.619,291.699 253.786,285.699 260.5,281.5C 282.473,263.849 304.806,246.682 327.5,230C 334.023,225.242 340.689,220.742 347.5,216.5 Z M 150.5,251.5 C 183.009,268.122 214.342,286.789 244.5,307.5C 245.665,314.811 245.831,322.144 245,329.5C 213.912,313.372 182.745,297.372 151.5,281.5C 150.501,271.522 150.168,261.522 150.5,251.5 Z M 346.5,251.5 C 347.828,256.119 348.494,261.119 348.5,266.5C 348.488,271.746 348.155,276.913 347.5,282C 316.112,297.36 285.112,313.193 254.5,329.5C 253.503,322.197 253.169,314.863 253.5,307.5C 254.552,307.649 255.552,307.483 256.5,307C 265.732,300.132 275.232,293.632 285,287.5C 305.784,275.863 326.284,263.863 346.5,251.5 Z M 150.5,290.5 C 183.226,303.733 214.726,319.399 245,337.5C 245.498,340.817 245.665,344.15 245.5,347.5C 213.833,347.5 182.167,347.5 150.5,347.5C 150.5,328.5 150.5,309.5 150.5,290.5 Z M 347.5,290.5 C 348.497,309.326 348.83,328.326 348.5,347.5C 316.833,347.5 285.167,347.5 253.5,347.5C 253.18,344.102 253.513,340.768 254.5,337.5C 284.55,320.027 315.55,304.36 347.5,290.5 Z"/></g>
<g><path style="opacity:0.067" fill="#919c9e" d="M 347.5,216.5 C 347.56,215.957 347.893,215.624 348.5,215.5C 349.821,223.991 349.821,232.324 348.5,240.5C 348.826,232.316 348.492,224.316 347.5,216.5 Z"/></g>
<g><path style="opacity:0.067" fill="#9296a0" d="M 347.5,290.5 C 347.56,289.957 347.893,289.624 348.5,289.5C 348.833,299.333 349.167,309.167 349.5,319C 349.512,329.242 349.179,338.742 348.5,347.5C 348.83,328.326 348.497,309.326 347.5,290.5 Z"/></g>
<g><path style="opacity:0.978" fill="#e9e9ea" d="M 162.5,364.5 C 169.036,364.876 174.703,367.209 179.5,371.5C 181.862,376.702 180.195,379.368 174.5,379.5C 173.37,373.7 170.037,369.7 164.5,367.5C 160.233,368.768 157.233,371.435 155.5,375.5C 153.074,382.435 152.907,389.435 155,396.5C 157.455,402.81 161.955,404.977 168.5,403C 171.226,401.077 173.226,398.577 174.5,395.5C 172.879,392.348 171.879,389.015 171.5,385.5C 174.833,385.5 178.167,385.5 181.5,385.5C 181.5,392.5 181.5,399.5 181.5,406.5C 178.675,406.838 176.508,405.838 175,403.5C 162.491,410.199 152.491,407.532 145,395.5C 142.111,385.333 144.278,376.499 151.5,369C 155.059,367.038 158.726,365.538 162.5,364.5 Z"/></g>
<g><path style="opacity:0.981" fill="#ececec" d="M 197.5,366.5 C 199.5,366.5 201.5,366.5 203.5,366.5C 207.703,379.629 212.369,392.629 217.5,405.5C 213.217,406.492 208.884,406.826 204.5,406.5C 204.948,400.599 204.281,394.932 202.5,389.5C 199.482,389.335 196.482,389.502 193.5,390C 190.661,394.894 189.827,400.061 191,405.5C 188.619,406.435 186.119,406.768 183.5,406.5C 187.677,392.992 192.343,379.659 197.5,366.5 Z M 197.5,376.5 C 199.194,379.575 200.028,382.908 200,386.5C 197.8,387.99 195.966,387.657 194.5,385.5C 195.35,382.427 196.35,379.427 197.5,376.5 Z"/></g>
<g><path style="opacity:0.997" fill="#eaebeb" d="M 219.5,366.5 C 226.841,366.334 234.174,366.5 241.5,367C 248.829,369.33 251.329,374.163 249,381.5C 247.122,383.68 244.956,385.513 242.5,387C 248.136,392.425 251.802,398.925 253.5,406.5C 250.102,406.82 246.768,406.487 243.5,405.5C 241.938,401.53 240.438,397.53 239,393.5C 237.615,392.449 236.615,391.116 236,389.5C 234.211,387.771 232.044,387.104 229.5,387.5C 229.5,393.833 229.5,400.167 229.5,406.5C 226.167,406.5 222.833,406.5 219.5,406.5C 220.111,400 220.777,393.5 221.5,387C 220.873,380.156 220.207,373.323 219.5,366.5 Z M 229.5,369.5 C 239.574,369.451 242.241,373.951 237.5,383C 234.854,383.497 232.187,383.664 229.5,383.5C 229.5,378.833 229.5,374.167 229.5,369.5 Z"/></g>
<g><path style="opacity:0.184" fill="#3b4043" d="M 261.5,366.5 C 259.626,367.285 257.626,367.952 255.5,368.5C 256.918,366.692 258.918,366.025 261.5,366.5 Z"/></g>
<g><path style="opacity:0.988" fill="#f0f0f0" d="M 261.5,366.5 C 272.759,364.083 282.092,367.083 289.5,375.5C 294.212,386.784 291.878,396.284 282.5,404C 280.754,404.471 279.087,405.138 277.5,406C 270.842,406.5 264.175,406.666 257.5,406.5C 256.766,405.292 256.433,403.959 256.5,402.5C 256.811,391.086 256.477,379.752 255.5,368.5C 257.626,367.952 259.626,367.285 261.5,366.5 Z M 266.5,369.5 C 270.753,368.986 274.587,369.986 278,372.5C 284.316,382.768 283.816,392.601 276.5,402C 270.684,405.101 266.851,403.601 265,397.5C 264.06,388.063 264.56,378.729 266.5,369.5 Z"/></g>
<g><path style="opacity:0.988" fill="#eaebeb" d="M 348.5,369.5 C 348.557,368.391 348.89,367.391 349.5,366.5C 351.167,366.5 352.833,366.5 354.5,366.5C 354.5,379.833 354.5,393.167 354.5,406.5C 351.635,406.945 349.135,406.278 347,404.5C 340.667,396.167 334.333,387.833 328,379.5C 327.413,388.54 328.913,397.207 332.5,405.5C 329.914,406.48 327.247,406.813 324.5,406.5C 324.5,393.167 324.5,379.833 324.5,366.5C 327.685,366.02 330.519,366.686 333,368.5C 338.755,377.01 344.755,385.343 351,393.5C 352.085,385.259 351.252,377.259 348.5,369.5 Z"/></g>
<g><path style="opacity:0.976" fill="#e8e9e9" d="M 293.5,366.5 C 302.833,366.5 312.167,366.5 321.5,366.5C 321.5,368.833 321.5,371.167 321.5,373.5C 318.484,373.159 315.818,371.993 313.5,370C 310.833,369.333 308.167,369.333 305.5,370C 303.897,373.983 303.23,378.15 303.5,382.5C 308.167,382.167 312.833,381.833 317.5,381.5C 317.5,383.5 317.5,385.5 317.5,387.5C 312.848,387.002 308.181,386.669 303.5,386.5C 303.068,392.004 303.735,397.337 305.5,402.5C 306.293,402.931 307.127,403.265 308,403.5C 312.657,402.582 317.157,401.249 321.5,399.5C 321.756,401.792 321.423,403.959 320.5,406C 311.506,406.5 302.506,406.666 293.5,406.5C 296.167,393.167 296.167,379.833 293.5,366.5 Z"/></g>
<g><path style="opacity:0.302" fill="#4c4d4c" d="M 349.5,366.5 C 348.89,367.391 348.557,368.391 348.5,369.5C 347.115,368.053 347.448,367.053 349.5,366.5 Z"/></g>
<g><path style="opacity:0.071" fill="#505555" d="M 256.5,402.5 C 256.433,403.959 256.766,405.292 257.5,406.5C 256.414,406.38 255.747,405.713 255.5,404.5C 255.543,403.584 255.876,402.917 256.5,402.5 Z"/></g>
<g><path style="opacity:0.897" fill="#c7c7c7" d="M 204.5,418.5 C 211.129,417.796 214.129,420.796 213.5,427.5C 213.392,428.442 213.059,429.275 212.5,430C 209.518,430.498 206.518,430.665 203.5,430.5C 203.237,426.4 203.57,422.4 204.5,418.5 Z M 206.5,421.5 C 207.978,421.238 209.311,421.571 210.5,422.5C 209.68,424.111 208.346,424.778 206.5,424.5C 206.5,423.5 206.5,422.5 206.5,421.5 Z M 206.5,425.5 C 212.969,426.948 212.969,427.948 206.5,428.5C 206.5,427.5 206.5,426.5 206.5,425.5 Z"/></g>
<g><path style="opacity:0.873" fill="#d2d2d2" d="M 249.5,418.5 C 255.937,419.706 257.937,423.372 255.5,429.5C 251.73,431.024 248.23,430.691 245,428.5C 243.558,423.723 245.058,420.39 249.5,418.5 Z M 248.5,421.5 C 254.016,421.473 255.349,423.64 252.5,428C 246.704,428.574 245.37,426.407 248.5,421.5 Z"/></g>
<g><path style="opacity:0.867" fill="#d6d6d6" d="M 260.5,418.5 C 263.862,418.07 266.695,419.07 269,421.5C 268.716,424.409 268.883,427.242 269.5,430C 268.5,430.667 267.5,430.667 266.5,430C 264.395,426.599 262.728,426.766 261.5,430.5C 260.509,426.555 260.176,422.555 260.5,418.5 Z M 262.5,421.5 C 269.085,422.682 269.085,424.015 262.5,425.5C 262.5,424.167 262.5,422.833 262.5,421.5 Z"/></g>
<g><path style="opacity:0.882" fill="#d5d5d5" d="M 280.5,418.5 C 283.794,418.259 286.794,419.092 289.5,421C 291.797,429.533 288.464,432.7 279.5,430.5C 279.237,426.4 279.57,422.4 280.5,418.5 Z M 281.5,421.5 C 284.885,420.79 287.219,421.956 288.5,425C 287.219,428.044 284.885,429.21 281.5,428.5C 281.5,426.167 281.5,423.833 281.5,421.5 Z"/></g>
<g><path style="opacity:0.043" fill="#e3e3e3" d="M 294.5,418.5 C 295.117,418.611 295.617,418.944 296,419.5C 296.499,423.152 296.665,426.818 296.5,430.5C 295.5,430.5 294.5,430.5 293.5,430.5C 293.237,426.4 293.57,422.4 294.5,418.5 Z"/></g>
<g><path style="opacity:1" fill="#f1f1f1" d="M 144.5,421.5 C 161.837,421.333 179.17,421.5 196.5,422C 197.833,424 197.833,426 196.5,428C 179.17,428.5 161.837,428.667 144.5,428.5C 144.5,426.167 144.5,423.833 144.5,421.5 Z"/></g>
<g><path style="opacity:0.801" fill="#dadada" d="M 220.5,418.5 C 227.673,419.68 229.673,423.514 226.5,430C 222.402,431.147 218.902,430.314 216,427.5C 215.333,425.833 215.333,424.167 216,422.5C 217.667,421.267 219.167,419.933 220.5,418.5 Z M 220.5,421.5 C 222.981,421.323 224.814,422.323 226,424.5C 226.507,425.996 226.007,427.163 224.5,428C 218.681,428.526 217.348,426.359 220.5,421.5 Z"/></g>
<g><path style="opacity:0.769" fill="#d4d4d4" d="M 235.5,418.5 C 237.842,418.504 239.842,419.337 241.5,421C 241,421.5 240.5,422 240,422.5C 235.1,420.662 233.1,422.329 234,427.5C 235.699,428.406 237.533,428.739 239.5,428.5C 239.238,427.022 239.571,425.689 240.5,424.5C 241.76,426.353 241.76,428.186 240.5,430C 233.026,432.508 229.859,430.008 231,422.5C 232.25,420.807 233.75,419.473 235.5,418.5 Z"/></g>
<g><path style="opacity:1" fill="#f1f1f1" d="M 302.5,421.5 C 319.833,421.5 337.167,421.5 354.5,421.5C 354.5,423.833 354.5,426.167 354.5,428.5C 337.497,428.667 320.497,428.5 303.5,428C 301.316,426.102 300.983,423.936 302.5,421.5 Z"/></g>
<g><path style="opacity:0.147" fill="#bdbdbd" d="M 273.5,418.5 C 274.117,418.611 274.617,418.944 275,419.5C 275.825,423.211 275.659,426.878 274.5,430.5C 273.509,426.555 273.176,422.555 273.5,418.5 Z"/></g>
</svg>
